<svg width="39" height="39" viewBox="0 0 39 39" fill="none" xmlns="http://www.w3.org/2000/svg">
<circle cx="19.5" cy="19.5" r="19.5" fill="white"/>
<g clip-path="url(#clip0_608_10233)">
<path d="M30.3758 27.8947C30.1009 28.4388 29.6556 28.6946 29.1114 28.9972C28.8283 29.1549 27.9362 29.6191 26.6378 29.7139C26.0452 29.7574 25.5504 29.7106 25.2085 29.6587C24.0684 29.9333 23.1048 30.1031 22.405 30.21C20.7032 30.4696 18.1437 30.8417 14.984 30.4305C13.9836 30.3004 13.1678 30.1235 12.6203 29.9895C12.2141 30.0777 11.6061 30.1835 10.8613 30.21C9.6596 30.2524 8.58658 30.2905 7.78291 29.6036C7.69825 29.5309 7.49321 29.3556 7.31401 29.1042C7.30961 29.0987 7.30576 29.0926 7.30137 29.0865C7.28158 29.0579 7.26179 29.0281 7.24255 28.9978C7.21231 28.9487 7.18318 28.8969 7.1557 28.8429C7.148 28.8269 7.1403 28.8109 7.13316 28.7949C7.12491 28.7773 7.11722 28.7596 7.10952 28.7415C7.10347 28.7266 7.09743 28.7117 7.09138 28.6968C7.08533 28.6814 7.07984 28.6654 7.07434 28.6494C7.07379 28.6472 7.07269 28.6444 7.07159 28.6417C7.06554 28.624 7.06005 28.6058 7.05455 28.5877C7.04905 28.5689 7.04356 28.5502 7.03916 28.5309C7.03421 28.5132 7.03036 28.495 7.02651 28.4769C7.02596 28.4752 7.02542 28.473 7.02487 28.4713C7.02157 28.4543 7.01827 28.4372 7.01552 28.4195C7.01497 28.4168 7.01442 28.414 7.01387 28.4113C7.01112 28.3925 7.00837 28.3732 7.00618 28.3539C7.00398 28.3335 7.00233 28.3131 7.00068 28.2927C6.99958 28.274 6.99848 28.2552 6.99793 28.236C6.99738 28.2161 6.99738 28.1957 6.99793 28.1753C6.99848 28.1505 6.99958 28.1257 7.00178 28.1003C7.00288 28.0904 7.00398 28.0799 7.00508 28.0695C7.00673 28.048 7.01002 28.0265 7.01332 28.005C7.01607 27.9884 7.01882 27.9713 7.02212 27.9554C7.02432 27.9449 7.02651 27.935 7.02871 27.9245C7.03751 27.8854 7.04795 27.8468 7.06005 27.8098C7.0628 27.801 7.06554 27.7922 7.06884 27.7834C7.07379 27.7674 7.07984 27.752 7.08588 27.7365C7.09193 27.7211 7.09853 27.7051 7.10512 27.6902C7.11172 27.6742 7.11886 27.6582 7.12656 27.6428C7.1502 27.5937 7.17603 27.5474 7.20407 27.5028C7.21067 27.4923 7.21726 27.4824 7.22386 27.4725C7.23045 27.462 7.23705 27.4521 7.2442 27.4421C7.25134 27.4322 7.25794 27.4223 7.26509 27.4129C7.27718 27.3964 7.28982 27.3799 7.30247 27.3639C7.31951 27.3429 7.33655 27.322 7.35414 27.3021C7.36183 27.2933 7.36953 27.285 7.37723 27.2762C7.40086 27.2503 7.4245 27.2261 7.44924 27.2023C7.45693 27.1941 7.46518 27.1864 7.47342 27.1786C7.48992 27.1632 7.50586 27.1483 7.52235 27.134C7.55533 27.1053 7.58831 27.0783 7.62074 27.053C7.63779 27.0397 7.65428 27.027 7.67132 27.0144C7.67846 27.0089 7.68616 27.0039 7.69331 26.9984C7.8005 26.9223 7.90219 26.8633 7.9841 26.8209C7.99619 26.8148 8.00829 26.8088 8.01983 26.8027C8.06326 26.7812 8.09954 26.7652 8.12537 26.7542C8.13747 26.7492 8.14736 26.7448 8.15451 26.742C8.16055 26.7398 8.16495 26.7382 8.1677 26.7371C8.15396 26.725 8.13967 26.7123 8.12537 26.6991C8.10723 26.6825 8.08909 26.6654 8.06985 26.6478C8.04457 26.6241 8.01928 26.5993 7.99289 26.5739C7.9896 26.5706 7.98575 26.5673 7.98245 26.5634C7.96596 26.5475 7.94947 26.5309 7.93243 26.5138C7.91539 26.4967 7.89835 26.4791 7.88185 26.4615C7.86481 26.4438 7.84722 26.4256 7.83018 26.4074C7.81259 26.3887 7.795 26.3694 7.77741 26.3501C7.75982 26.3308 7.74223 26.311 7.72409 26.2906C7.70595 26.2702 7.68836 26.2492 7.67022 26.2283C7.56193 26.1009 7.45144 25.9587 7.34314 25.8C7.31621 25.7608 7.29037 25.7211 7.26509 25.6814C7.22606 25.6213 7.18923 25.5613 7.15405 25.5006C7.11392 25.4317 7.07544 25.3623 7.03861 25.2922C7.00398 25.2255 6.97044 25.1583 6.93911 25.0905C6.82532 24.8485 6.73242 24.6015 6.65711 24.3518C6.64612 24.316 6.63567 24.2807 6.62578 24.2449C6.61918 24.2212 6.61259 24.1974 6.60654 24.1737C6.60159 24.1567 6.5972 24.139 6.5928 24.1219C6.58345 24.0855 6.57411 24.0492 6.56586 24.0128C6.51584 23.8033 6.47736 23.5927 6.44933 23.3821C6.44548 23.354 6.44163 23.3254 6.43833 23.2972C6.43613 23.278 6.43393 23.2581 6.43173 23.2383C6.42789 23.2057 6.42459 23.1738 6.42129 23.1412C6.41744 23.1016 6.41359 23.0613 6.4103 23.0211C6.40755 22.9891 6.40535 22.9566 6.40315 22.9246C6.39655 22.8265 6.39161 22.7283 6.38886 22.6308C6.38776 22.5999 6.38666 22.569 6.38666 22.5382C6.38501 22.4797 6.38501 22.4213 6.38501 22.3634C6.38556 22.2614 6.38721 22.16 6.39161 22.0597C6.39216 22.0398 6.39326 22.0205 6.39381 22.0007C6.3982 21.9048 6.4037 21.81 6.4114 21.7157C6.41469 21.6727 6.41799 21.6297 6.42239 21.5867C6.42349 21.5718 6.42459 21.5564 6.42624 21.5415C6.43009 21.5013 6.43393 21.461 6.43833 21.4213C6.44438 21.3623 6.45152 21.3045 6.45922 21.2466C6.46417 21.2041 6.46966 21.1622 6.47571 21.1203C6.47736 21.1066 6.47901 21.0933 6.48121 21.0801C6.48561 21.0487 6.49 21.0178 6.49495 20.9869C6.54442 20.6567 6.60709 20.3458 6.6747 20.0625C6.6846 20.02 6.69449 19.9787 6.70439 19.9379C6.70549 19.934 6.70659 19.9307 6.70714 19.9274C6.71758 19.8877 6.72748 19.8486 6.73737 19.81C6.74726 19.7714 6.75716 19.7334 6.7676 19.6959C6.77255 19.6766 6.7775 19.6573 6.783 19.6386C6.79344 19.6005 6.80388 19.5636 6.81433 19.5267C6.83467 19.4539 6.85556 19.3839 6.8759 19.3166C6.88084 19.3001 6.88634 19.2836 6.89129 19.267C6.90118 19.2328 6.91163 19.1998 6.92207 19.1678C6.93471 19.1264 6.94736 19.0868 6.96055 19.0487C6.97594 19.0013 6.99078 18.9561 7.00508 18.9137C7.03091 18.837 7.0551 18.7687 7.07654 18.7091C7.09413 18.659 7.11007 18.6154 7.12326 18.5785C7.14085 18.5294 7.15899 18.4809 7.17713 18.4324C7.45254 17.7053 7.8038 17.0179 8.21278 16.3762C9.57384 14.2401 11.5731 12.61 13.5092 11.7137C13.8577 11.5522 14.204 11.4144 14.5443 11.3019C15 11.1509 15.9784 10.8692 17.0471 10.5798C18.1184 10.2898 19.2805 9.99268 20.0963 9.81352C20.6086 9.70106 20.8895 9.65586 21.1743 9.58475C21.332 9.54561 21.4903 9.4982 21.6904 9.42764C22.6299 9.09358 22.9712 8.76779 23.5594 8.87638H23.56C23.5781 8.87969 23.5963 8.88355 23.6138 8.88796C24.1053 8.99876 24.4236 9.34605 24.5489 9.48277C25.0623 10.0434 25.0585 10.6421 25.2635 11.4673C25.4416 12.1839 25.6934 12.6801 26.198 13.6723C27.1319 15.5097 27.8801 15.3404 28.9465 17.035C30.0311 18.7588 30.2224 20.4688 30.2658 21.004C30.3758 22.3529 30.1416 23.5442 29.991 24.3116C29.8519 25.0194 29.6853 25.6026 29.5512 26.0205C29.6424 26.0309 30.2152 26.107 30.4857 26.5717C30.7847 27.0855 30.4851 27.6786 30.3758 27.8947Z" fill="#E6E1F1"/>
<path d="M17.8424 31C16.9442 31 15.9701 30.9481 14.9339 30.8136C14.1544 30.7122 13.3744 30.5683 12.6142 30.3859C12.0425 30.5049 11.4576 30.5755 10.8743 30.5964C9.62707 30.6405 8.45015 30.6819 7.5327 29.898C7.43265 29.812 7.20782 29.6185 7.00388 29.3346C6.99893 29.328 6.99399 29.3208 6.98904 29.3137L6.98464 29.307C6.9621 29.274 6.93957 29.2403 6.91758 29.2056C6.8791 29.1428 6.84447 29.0816 6.81258 29.0193L6.80874 29.011C6.79939 28.9923 6.7906 28.973 6.78235 28.9542C6.7741 28.9366 6.76476 28.9151 6.75487 28.8925L6.73288 28.8379C6.72518 28.8181 6.71803 28.7971 6.71089 28.7767L6.70814 28.7685C6.70044 28.7464 6.6933 28.7233 6.6867 28.7001L6.68505 28.6946C6.67846 28.672 6.67241 28.6499 6.66691 28.6268C6.66251 28.6103 6.65867 28.5937 6.65482 28.5766L6.65207 28.5678L6.64767 28.5447C6.64382 28.5243 6.64053 28.5066 6.63723 28.4884L6.63338 28.4675C6.63008 28.4449 6.62678 28.4212 6.62404 28.398C6.62129 28.3721 6.61909 28.3479 6.61744 28.3242V28.3148C6.61524 28.2927 6.61414 28.2707 6.61359 28.2475C6.61304 28.2194 6.61304 28.1924 6.61359 28.1648C6.61414 28.1329 6.61579 28.1003 6.61854 28.0667L6.62184 28.0331C6.62459 28.0039 6.62843 27.9747 6.63283 27.9454L6.63448 27.9361C6.63778 27.9157 6.64108 27.8953 6.64547 27.876L6.65207 27.8446C6.66471 27.7878 6.67846 27.7371 6.6944 27.6891C6.69715 27.6797 6.70099 27.6693 6.70429 27.6588C6.71144 27.6373 6.71913 27.6163 6.72738 27.5954C6.73453 27.5767 6.74277 27.5568 6.75102 27.5381C6.76036 27.516 6.77026 27.494 6.7807 27.473C6.80984 27.4129 6.84172 27.3556 6.878 27.2977C6.88569 27.285 6.89339 27.274 6.90109 27.2624C6.91098 27.2465 6.92143 27.2316 6.93187 27.2167L6.93627 27.2106C6.94286 27.2012 6.94946 27.1919 6.95606 27.1831C6.97035 27.1638 6.98519 27.1439 7.00003 27.1252L7.00388 27.1202C7.02587 27.0932 7.04566 27.0689 7.066 27.0463L7.09238 27.0166C7.11987 26.9868 7.14735 26.9581 7.17649 26.93C7.18748 26.9185 7.19903 26.908 7.21057 26.897C7.23036 26.8782 7.2496 26.8606 7.26994 26.8429C7.30622 26.8115 7.34415 26.7801 7.38373 26.7492C7.40352 26.7338 7.42111 26.7206 7.43925 26.7068C7.44639 26.7013 7.45354 26.6963 7.46124 26.6908L7.45904 26.6924L7.47113 26.6836C7.48927 26.6709 7.50741 26.6583 7.52555 26.6456C7.51456 26.634 7.50411 26.6219 7.49312 26.6103C7.47608 26.5916 7.45849 26.5717 7.44035 26.5519C7.42386 26.5331 7.41066 26.5177 7.39747 26.5028L7.37988 26.4819C7.2518 26.3308 7.13306 26.1759 7.02587 26.0182C6.99728 25.9769 6.9687 25.9334 6.94121 25.8898C6.90109 25.8286 6.86041 25.7619 6.82193 25.6952C6.7796 25.6224 6.73782 25.5475 6.6988 25.4731C6.65647 25.3915 6.62129 25.3204 6.5905 25.2531C6.47397 25.0056 6.37227 24.7393 6.28927 24.4643C6.27772 24.4262 6.26618 24.3876 6.25518 24.3485C6.24859 24.3248 6.24199 24.3005 6.23539 24.2757C6.231 24.2597 6.2266 24.2432 6.22275 24.2272L6.22055 24.219C6.21011 24.1782 6.19966 24.1385 6.19087 24.0982C6.1403 23.8854 6.09852 23.6605 6.06828 23.4334C6.06444 23.4042 6.06004 23.3728 6.05674 23.3425L6.05014 23.2813C6.0463 23.2493 6.043 23.2151 6.03915 23.1804C6.03475 23.1374 6.0309 23.0949 6.02761 23.053C6.02486 23.0205 6.02211 22.9852 6.01991 22.9511C6.01276 22.8414 6.00782 22.7405 6.00507 22.6424C6.00397 22.6087 6.00287 22.5768 6.00287 22.5442C6.00122 22.4841 6.00122 22.4235 6.00122 22.364C6.00177 22.2383 6.00397 22.1374 6.00837 22.0437L6.01057 21.9836C6.01551 21.8706 6.02156 21.7758 6.02871 21.6848V21.681C6.03255 21.6385 6.0353 21.5961 6.0397 21.5536C6.0408 21.5365 6.04245 21.5194 6.0441 21.5029C6.04795 21.4616 6.05179 21.4202 6.05674 21.3794C6.06279 21.3204 6.07048 21.2598 6.07818 21.1992C6.08313 21.1556 6.08862 21.1132 6.09522 21.0702C6.09742 21.0542 6.09907 21.0382 6.10182 21.0228C6.10621 20.9902 6.11116 20.9583 6.11611 20.9263C6.16283 20.6143 6.2255 20.2924 6.30136 19.9732C6.3107 19.9324 6.32115 19.8905 6.33104 19.8491L6.33599 19.8293C6.34314 19.8023 6.34973 19.7758 6.35688 19.7494L6.36567 19.7141C6.37557 19.6744 6.38601 19.6353 6.39701 19.5967C6.4025 19.5757 6.408 19.5542 6.41405 19.5338C6.42449 19.4958 6.43494 19.4589 6.44538 19.4219C6.46627 19.3475 6.48771 19.2753 6.50915 19.2053L6.52454 19.1557C6.53388 19.1226 6.54543 19.0868 6.55697 19.0515C6.57016 19.0079 6.58391 18.966 6.59765 18.9258C6.61304 18.8784 6.62788 18.8332 6.64218 18.7907C6.66911 18.7108 6.6944 18.6402 6.71639 18.5785C6.72793 18.546 6.73947 18.5134 6.74992 18.4842L6.76256 18.449C6.7807 18.3977 6.79939 18.3475 6.81863 18.2974C7.09568 17.5658 7.45629 16.8503 7.89055 16.169C9.19885 14.1161 11.1888 12.3647 13.3497 11.3637C13.7108 11.1966 14.0725 11.0522 14.4254 10.9359C14.8822 10.7843 15.8492 10.5053 16.9486 10.2077C18.1574 9.88078 19.2749 9.59963 20.0159 9.43701C20.2501 9.38575 20.4343 9.34881 20.5964 9.31574C20.7861 9.2777 20.9356 9.24738 21.0835 9.21045C21.2363 9.17241 21.3847 9.12721 21.565 9.06381C21.8519 8.96183 22.0817 8.85985 22.2846 8.76999C22.7375 8.56934 23.0976 8.40947 23.5945 8.49051H23.5962L23.6308 8.49657C23.6555 8.50098 23.6803 8.50649 23.7044 8.51201C24.3108 8.65037 24.6906 9.06492 24.8341 9.22092C25.2986 9.72808 25.4074 10.2678 25.5223 10.8389C25.5569 11.0097 25.5921 11.1861 25.6389 11.3736C25.8071 12.0494 26.0528 12.5329 26.5426 13.4965C27.0137 14.4226 27.4166 14.7886 27.8838 15.2125C28.2917 15.5824 28.7535 16.0014 29.2735 16.8283C30.3135 18.4815 30.5829 20.1341 30.6511 20.9721C30.7654 22.3733 30.5279 23.5828 30.3707 24.3838C30.2806 24.8435 30.1695 25.2994 30.0398 25.7448C30.3058 25.8446 30.6186 26.0304 30.8198 26.3766C31.2249 27.0728 30.8451 27.8225 30.7209 28.0689C30.3867 28.7299 29.8342 29.0369 29.2999 29.3341C28.8585 29.5799 27.9295 30.006 26.6674 30.0981C26.188 30.1334 25.7043 30.1174 25.2277 30.0507C24.3141 30.2684 23.3845 30.4504 22.4643 30.5909C21.377 30.7568 19.7884 30.9994 17.844 30.9994L17.8424 31ZM12.6252 29.5937L12.7115 29.6146C13.4717 29.8004 14.2528 29.9465 15.0334 30.0479C18.2041 30.4608 20.7976 30.065 22.3472 29.8285C23.2702 29.6874 24.2025 29.5044 25.1188 29.2833L25.1919 29.2657L25.2662 29.2767C25.7103 29.344 26.1622 29.3616 26.6096 29.3285C27.7244 29.247 28.5385 28.8743 28.9244 28.6593C29.4703 28.3556 29.8161 28.1478 30.0321 27.72C30.1178 27.5496 30.3465 27.0987 30.153 26.7658C29.9821 26.4719 29.5852 26.4124 29.5071 26.4036L29.041 26.3501L29.185 25.9019C29.3582 25.3617 29.5027 24.8016 29.6132 24.2366C29.7627 23.4759 29.9876 22.3292 29.882 21.0349C29.8199 20.2675 29.5731 18.7538 28.621 17.2406C28.157 16.5036 27.7547 16.1381 27.3655 15.7853C26.8861 15.3498 26.3898 14.9 25.8549 13.8476C25.3547 12.8642 25.0793 12.3223 24.8896 11.5605C24.839 11.3565 24.8017 11.1713 24.7654 10.9921C24.6598 10.4695 24.584 10.0919 24.2651 9.74351C24.1569 9.62554 23.9029 9.34826 23.5291 9.26392L23.5203 9.26171C23.5137 9.26006 23.5071 9.25841 23.5005 9.2573L23.4895 9.2551C23.2174 9.20494 23.0294 9.28156 22.5929 9.47505C22.3885 9.56601 22.1339 9.67846 21.8184 9.79092C21.6134 9.86313 21.443 9.91495 21.266 9.95905C21.1016 9.99985 20.9444 10.0318 20.7448 10.0721C20.586 10.104 20.4057 10.1404 20.1775 10.1906C19.4486 10.351 18.3437 10.6283 17.1465 10.9524C16.0762 11.2424 15.1021 11.523 14.664 11.6685C14.3386 11.776 14.0038 11.9094 13.6696 12.0643C11.6379 13.0047 9.76724 14.6524 8.53591 16.5841C8.13023 17.2208 7.79381 17.8889 7.53599 18.5697C7.51895 18.6149 7.50136 18.6617 7.48432 18.7091L7.47113 18.7461C7.46124 18.7731 7.45024 18.8034 7.4387 18.837C7.41671 18.8977 7.39362 18.9638 7.36834 19.0377C7.35459 19.0785 7.3403 19.1226 7.32546 19.1683L7.32271 19.1761C7.31117 19.2097 7.29962 19.245 7.28863 19.2813L7.28643 19.288C7.27708 19.3161 7.26829 19.3447 7.25949 19.3751L7.243 19.428C7.22321 19.4941 7.20287 19.5614 7.18308 19.6314C7.17264 19.6683 7.1622 19.7042 7.1523 19.7411L7.1501 19.7483C7.1457 19.7626 7.14241 19.7775 7.13856 19.7924L7.13636 19.8006C7.12647 19.8354 7.11767 19.8706 7.10833 19.9065L7.09953 19.9406C7.09293 19.966 7.08634 19.9919 7.07974 20.0178C7.07809 20.025 7.07644 20.0316 7.07479 20.0371C7.066 20.0741 7.05665 20.1115 7.04786 20.1501C6.9764 20.45 6.91813 20.7504 6.87415 21.0443C6.8692 21.0762 6.86481 21.1049 6.86096 21.1336L6.85931 21.1435C6.85821 21.1512 6.85711 21.1589 6.85601 21.1666L6.85491 21.1755C6.84941 21.2141 6.84447 21.2526 6.83952 21.2912V21.2973C6.83182 21.3513 6.82468 21.4053 6.81918 21.461C6.81478 21.5018 6.81093 21.5398 6.80764 21.5779V21.5845C6.80599 21.5944 6.80544 21.6049 6.80434 21.6143L6.80324 21.6258C6.79939 21.6639 6.79664 21.7019 6.79334 21.7394V21.7449C6.7862 21.8276 6.7807 21.9141 6.7763 22.0178L6.7741 22.0707C6.77026 22.1595 6.76806 22.2515 6.76751 22.3651C6.76751 22.4174 6.76751 22.472 6.76916 22.5271V22.5376C6.76916 22.5624 6.77026 22.5878 6.77136 22.6126V22.6192C6.7741 22.7074 6.7785 22.7984 6.7851 22.8981C6.7873 22.9279 6.78895 22.9577 6.7917 22.9874C6.79499 23.0271 6.79884 23.0657 6.80214 23.1032C6.80489 23.1319 6.80819 23.1616 6.81148 23.192L6.81808 23.2526C6.82083 23.2774 6.82468 23.3033 6.82798 23.3287C6.85491 23.531 6.89174 23.73 6.93737 23.9224C6.94561 23.9593 6.95441 23.9918 6.96265 24.0244L6.96485 24.0337C6.9676 24.0442 6.97035 24.0552 6.9731 24.0652L6.9764 24.0767C6.98189 24.0977 6.98794 24.1192 6.99344 24.1401C7.00278 24.1732 7.01213 24.2052 7.02202 24.2377C7.09458 24.478 7.18254 24.709 7.28423 24.9251C7.31117 24.9835 7.3414 25.0447 7.37713 25.1131C7.41011 25.1759 7.44639 25.2415 7.48377 25.3049C7.51621 25.3612 7.55029 25.4163 7.58492 25.4697C7.60966 25.5083 7.63274 25.5442 7.65693 25.5795C7.74983 25.7162 7.85153 25.849 7.96037 25.9769L7.97906 25.9984C7.98895 26.01 7.99885 26.0216 8.00874 26.0326L8.01259 26.037C8.02853 26.0546 8.04392 26.0717 8.05931 26.0888C8.0758 26.107 8.0923 26.1246 8.10824 26.1423C8.12198 26.1572 8.13572 26.1715 8.14946 26.1853L8.16101 26.1969C8.17475 26.2117 8.18904 26.2261 8.20279 26.2404L8.20828 26.2459C8.22148 26.2591 8.23467 26.2724 8.24786 26.2851L8.28194 26.3181C8.29843 26.3341 8.31438 26.3496 8.33032 26.3644L8.38199 26.4124C8.39573 26.4251 8.40783 26.4361 8.41937 26.446L8.88882 26.86L8.30833 27.0938C8.30393 27.0954 8.29788 27.0976 8.28964 27.1009L8.26875 27.1097C8.25226 27.1169 8.22422 27.129 8.19069 27.1456C8.1786 27.1516 8.16596 27.1582 8.15331 27.1643C8.10054 27.1919 8.01259 27.2409 7.91639 27.3087C7.91144 27.3126 7.90595 27.3165 7.90045 27.3203L7.90375 27.3176L7.89715 27.3225C7.88231 27.3335 7.86747 27.3451 7.85262 27.3567C7.82679 27.3771 7.79875 27.3997 7.77127 27.424C7.75808 27.435 7.74598 27.4471 7.73279 27.4592L7.7119 27.4796C7.69321 27.4973 7.67562 27.5155 7.65803 27.5348L7.64044 27.5546C7.6245 27.5722 7.61185 27.5882 7.59921 27.6042C7.59097 27.6147 7.58107 27.6274 7.57173 27.64L7.55249 27.6671C7.54974 27.6709 7.54754 27.6742 7.54534 27.6781L7.54039 27.6858C7.53545 27.693 7.5305 27.7007 7.52555 27.7084C7.50466 27.7415 7.48597 27.7751 7.46948 27.8098L7.46673 27.8148C7.46288 27.822 7.46014 27.8297 7.45684 27.8368L7.45299 27.8462C7.44859 27.8556 7.44419 27.8661 7.44035 27.876C7.43705 27.8837 7.4343 27.8903 7.4321 27.8969L7.42166 27.9289C7.41341 27.9537 7.40626 27.9802 7.40022 28.0077L7.39472 28.0336C7.39307 28.0419 7.39142 28.0518 7.38977 28.0612L7.38867 28.0667C7.38757 28.0744 7.38538 28.086 7.38428 28.0976L7.38043 28.1351C7.37933 28.1511 7.37823 28.167 7.37823 28.183C7.37823 28.1974 7.37823 28.2111 7.37823 28.2238C7.37823 28.2371 7.37933 28.2503 7.38043 28.2641C7.38153 28.2795 7.38318 28.2949 7.38483 28.3104C7.38593 28.3203 7.38757 28.3319 7.38922 28.3434L7.39197 28.3583C7.39252 28.3633 7.39362 28.3688 7.39472 28.3738L7.39912 28.3947C7.40132 28.4063 7.40352 28.4157 7.40571 28.425L7.41011 28.4432C7.41231 28.4543 7.41561 28.4647 7.41891 28.4752C7.42221 28.4868 7.42605 28.4989 7.4299 28.5105C7.43155 28.5149 7.4332 28.5193 7.4343 28.5237C7.4376 28.5336 7.4409 28.543 7.44474 28.5524L7.46124 28.5937C7.46508 28.6031 7.47113 28.6169 7.47718 28.6301C7.48432 28.6455 7.48982 28.6577 7.49587 28.6698C7.51785 28.7122 7.54094 28.7541 7.56513 28.7933C7.57887 28.8153 7.59591 28.8407 7.61295 28.8649L7.6223 28.8776C7.77292 29.0887 7.95047 29.2414 8.02633 29.3065C8.71786 29.8974 9.70238 29.8627 10.8425 29.8225C11.4103 29.8021 11.9793 29.731 12.5345 29.6102L12.6213 29.5915L12.6252 29.5937ZM8.25336 26.29L8.25666 26.2933C8.25666 26.2933 8.25446 26.2911 8.25336 26.29ZM6.33489 19.8298C6.33489 19.8298 6.33489 19.8304 6.33489 19.831V19.8298Z" fill="#31235C"/>
<path d="M30.3755 27.8947C30.1007 28.4388 29.6554 28.6946 29.1112 28.9972C28.8281 29.1549 27.9359 29.6191 26.6375 29.7139C26.0449 29.7574 25.5502 29.7106 25.2083 29.6587C24.0682 29.9333 23.1046 30.1031 22.4048 30.21C20.7029 30.4696 18.1435 30.8417 14.9838 30.4305C13.9833 30.3004 13.1676 30.1235 12.6201 29.9895C12.2138 30.0777 11.6059 30.1835 10.861 30.21C9.65935 30.2524 8.58633 30.2905 7.78266 29.6036C7.69801 29.5309 7.49297 29.3556 7.31377 29.1042C7.30937 29.0987 7.30552 29.0926 7.30112 29.0865C7.28133 29.0579 7.26154 29.0281 7.2423 28.9978C7.21207 28.9487 7.18294 28.8969 7.15545 28.8429C7.14776 28.8269 7.14006 28.8109 7.13291 28.7949C7.12467 28.7773 7.11697 28.7596 7.10928 28.7415C7.10323 28.7266 7.09718 28.7117 7.09114 28.6968C7.08509 28.6814 7.07959 28.6654 7.07409 28.6494C7.07355 28.6472 7.07245 28.6444 7.07135 28.6417C7.0653 28.624 7.0598 28.6058 7.05431 28.5877C7.04881 28.5689 7.04331 28.5502 7.03891 28.5309C7.03397 28.5132 7.03012 28.495 7.02627 28.4769C7.02572 28.4752 7.02517 28.473 7.02462 28.4713C7.02132 28.4543 7.01802 28.4372 7.01528 28.4195C7.01473 28.4168 7.01418 28.414 7.01363 28.4113C7.01088 28.3925 7.00813 28.3732 7.00593 28.3539C7.00373 28.3335 7.00208 28.3131 7.00043 28.2927C6.99933 28.274 6.99824 28.2552 6.99769 28.236C6.99714 28.2161 6.99714 28.1957 6.99769 28.1753C6.99824 28.1505 6.99933 28.1257 7.00153 28.1003C7.00263 28.0904 7.00373 28.0799 7.00483 28.0695C7.00648 28.048 7.00978 28.0265 7.01308 28.005C7.01583 27.9884 7.01857 27.9713 7.02187 27.9554C7.02407 27.9449 7.02627 27.935 7.02847 27.9245C7.03726 27.8854 7.04771 27.8468 7.0598 27.8098C7.06255 27.801 7.0653 27.7922 7.0686 27.7834C7.07355 27.7674 7.07959 27.752 7.08564 27.7365C7.09169 27.7211 7.09828 27.7051 7.10488 27.6902C7.11147 27.6742 7.11862 27.6582 7.12632 27.6428C7.14995 27.5937 7.17579 27.5474 7.20382 27.5028C7.21042 27.4923 7.21702 27.4824 7.22361 27.4725C7.23021 27.462 7.23681 27.4521 7.24395 27.4421C7.2511 27.4322 7.2577 27.4223 7.26484 27.4129C7.27694 27.3964 7.28958 27.3799 7.30222 27.3639C7.31926 27.3429 7.3363 27.322 7.35389 27.3021C7.36159 27.2933 7.36929 27.285 7.37698 27.2762C7.40062 27.2503 7.42426 27.2261 7.44899 27.2023C7.45669 27.1941 7.46493 27.1864 7.47318 27.1786C7.48967 27.1632 7.50561 27.1483 7.5221 27.134C7.55509 27.1053 7.58807 27.0783 7.6205 27.053C7.63754 27.0397 7.65403 27.027 7.67107 27.0144C7.67822 27.0089 7.68592 27.0039 7.69306 26.9984C7.80025 26.9223 7.90195 26.8633 7.98386 26.8209C7.99595 26.8148 8.00804 26.8088 8.01959 26.8027C8.06301 26.7812 8.09929 26.7652 8.12513 26.7542C8.13722 26.7492 8.14712 26.7448 8.15426 26.742C8.16031 26.7398 8.16471 26.7382 8.16746 26.7371C8.15371 26.725 8.13942 26.7123 8.12513 26.6991C8.10699 26.6825 8.08885 26.6654 8.06961 26.6478C8.04432 26.6241 8.01904 26.5993 7.99265 26.5739C7.98935 26.5706 7.9855 26.5673 7.98221 26.5634C7.96572 26.5475 7.94922 26.5309 7.93218 26.5138C7.91514 26.4967 7.8981 26.4791 7.88161 26.4615C7.86457 26.4438 7.84698 26.4256 7.82994 26.4074C7.81235 26.3887 7.79476 26.3694 7.77717 26.3501C7.75958 26.3308 7.74199 26.311 7.72385 26.2906C7.7057 26.2702 7.68811 26.2492 7.66997 26.2283C7.56168 26.1009 7.45119 25.9587 7.3429 25.8C7.31596 25.7608 7.29013 25.7211 7.26484 25.6814C7.22581 25.6213 7.18898 25.5613 7.1538 25.5006C7.11367 25.4317 7.07519 25.3623 7.03836 25.2922C7.00373 25.2255 6.9702 25.1583 6.93887 25.0905C6.82508 24.8485 6.73218 24.6015 6.65687 24.3518C6.64588 24.316 6.63543 24.2807 6.62554 24.2449C6.61894 24.2212 6.61234 24.1974 6.6063 24.1737C6.60135 24.1567 6.59695 24.139 6.59255 24.1219C6.58321 24.0855 6.57386 24.0492 6.56562 24.0128C6.5156 23.8033 6.47712 23.5927 6.44908 23.3821C6.44523 23.354 6.44139 23.3254 6.43809 23.2972C6.43589 23.278 6.43369 23.2581 6.43149 23.2383C6.42764 23.2057 6.42434 23.1738 6.42105 23.1412C6.4172 23.1016 6.41335 23.0613 6.41005 23.0211C6.4073 22.9891 6.4051 22.9566 6.40291 22.9246C6.39631 22.8265 6.39136 22.7283 6.38861 22.6308C6.38751 22.5999 6.38641 22.569 6.38641 22.5382C6.38477 22.4797 6.38477 22.4213 6.38477 22.3634C6.38532 22.2614 6.38696 22.16 6.39136 22.0597C6.39191 22.0398 6.39301 22.0205 6.39356 22.0007C6.39796 21.9048 6.40346 21.81 6.41115 21.7157C6.41445 21.6727 6.41775 21.6297 6.42215 21.5867C6.42324 21.5718 6.42434 21.5564 6.42599 21.5415C6.42984 21.5013 6.43369 21.461 6.43809 21.4213C6.44413 21.3623 6.45128 21.3045 6.45898 21.2466C6.46392 21.2041 6.46942 21.1622 6.47547 21.1203C6.47712 21.1066 6.47877 21.0933 6.48096 21.0801C6.48536 21.0487 6.48976 21.0178 6.49471 20.9869C6.54418 20.6567 6.60685 20.3458 6.67446 20.0625C6.68435 20.02 6.69425 19.9787 6.70414 19.9379C6.70524 19.934 6.70634 19.9307 6.70689 19.9274C6.71734 19.8877 6.72723 19.8486 6.73713 19.81C6.74702 19.7714 6.75692 19.7334 6.76736 19.6959C6.77231 19.6766 6.77725 19.6573 6.78275 19.6386C6.7932 19.6005 6.80364 19.5636 6.81408 19.5267C6.83442 19.4539 6.85531 19.3839 6.87565 19.3166C6.8806 19.3001 6.8861 19.2836 6.89104 19.267C6.90094 19.2328 6.91138 19.1998 6.92183 19.1678C6.93447 19.1264 6.94711 19.0868 6.96031 19.0487C6.9757 19.0013 6.99054 18.9561 7.00483 18.9137C7.03067 18.837 7.05486 18.7687 7.07629 18.7091C7.09388 18.659 7.10983 18.6154 7.12302 18.5785C7.14061 18.5294 7.15875 18.4809 7.17689 18.4324C7.45229 17.7053 7.80355 17.0179 8.21253 16.3762C9.5736 14.2401 11.5729 12.61 13.5089 11.7137C13.8574 11.5522 14.2038 11.4144 14.544 11.3019C14.9997 11.1509 15.9782 10.8692 17.0468 10.5798C18.1182 10.2898 19.2803 9.99268 20.096 9.81352C20.6084 9.70106 20.8893 9.65586 21.174 9.58475C21.3318 9.54561 21.4901 9.4982 21.6902 9.42764C22.6296 9.09358 22.971 8.76779 23.5592 8.87638H23.5597C23.5779 8.87969 23.596 8.88355 23.6136 8.88796C24.105 8.99876 24.4233 9.34605 24.5486 9.48277C25.0621 10.0434 25.0582 10.6421 25.2633 11.4673C25.4414 12.1839 25.6931 12.6801 26.1978 13.6723C27.1317 15.5097 27.8799 15.3404 28.9463 17.035C30.0308 18.7588 30.2221 20.4688 30.2656 21.004C30.3755 22.3529 30.1413 23.5442 29.9907 24.3116C29.8516 25.0194 29.6851 25.6026 29.551 26.0205C29.6422 26.0309 30.215 26.107 30.4854 26.5717C30.7845 27.0855 30.4849 27.6786 30.3755 27.8947Z" fill="#E6E1F1"/>
<path d="M23.5592 8.87638C23.3805 9.02026 23.1997 9.15753 23.1194 9.20714C21.4153 10.2545 18.6668 11.0263 15.7534 12.0185C14.0427 12.6012 12.9482 13.3129 12.2023 13.8515C10.0386 15.4132 9.12944 17.6844 8.74245 18.686C8.0938 20.364 7.45944 22.0062 7.96077 23.7658C8.4665 25.5387 9.82372 26.3716 9.46751 27.1924C9.16792 27.8843 8.03992 27.6748 7.45889 28.7227C7.39842 28.8319 7.35115 28.9416 7.31377 29.0491C7.30937 29.0617 7.30497 29.0739 7.30112 29.0865C7.28133 29.0579 7.26154 29.0281 7.2423 28.9978C7.21207 28.9487 7.18294 28.8969 7.15545 28.8429C7.14776 28.8269 7.14006 28.8109 7.13291 28.7949C7.12467 28.7773 7.11697 28.7596 7.10928 28.7415C7.10323 28.7266 7.09718 28.7117 7.09114 28.6968C7.08509 28.6814 7.07959 28.6654 7.07409 28.6494C7.07355 28.6472 7.07245 28.6444 7.07135 28.6417C7.0653 28.624 7.0598 28.6058 7.05431 28.5877C7.04881 28.5689 7.04331 28.5502 7.03891 28.5309C7.03397 28.5132 7.03012 28.495 7.02627 28.4769C7.02572 28.4752 7.02517 28.473 7.02462 28.4713C7.02132 28.4543 7.01802 28.4372 7.01528 28.4195C7.01473 28.4168 7.01418 28.414 7.01363 28.4113C7.01088 28.3925 7.00813 28.3732 7.00593 28.3539C7.00373 28.3335 7.00208 28.3131 7.00043 28.2927C6.99933 28.274 6.99824 28.2552 6.99769 28.236C6.99714 28.2161 6.99714 28.1957 6.99769 28.1753C6.99824 28.1505 6.99933 28.1257 7.00153 28.1003C7.00263 28.0904 7.00373 28.0799 7.00483 28.0695C7.00648 28.048 7.00978 28.0265 7.01308 28.005C7.01583 27.9884 7.01857 27.9714 7.02187 27.9554C7.02407 27.9449 7.02627 27.935 7.02847 27.9245C7.03726 27.8854 7.04771 27.8468 7.0598 27.8098C7.06255 27.801 7.0653 27.7922 7.0686 27.7834C7.07355 27.7674 7.07959 27.752 7.08564 27.7365C7.09169 27.7211 7.09828 27.7051 7.10488 27.6902C7.11147 27.6742 7.11862 27.6582 7.12632 27.6428C7.14995 27.5937 7.17579 27.5474 7.20382 27.5028C7.21042 27.4923 7.21702 27.4824 7.22361 27.4725C7.23021 27.462 7.23681 27.4521 7.24395 27.4421C7.2511 27.4322 7.2577 27.4223 7.26484 27.4129C7.27694 27.3964 7.28958 27.3799 7.30222 27.3639C7.31926 27.3429 7.3363 27.322 7.35389 27.3021C7.36159 27.2933 7.36929 27.285 7.37698 27.2762C7.40062 27.2503 7.42426 27.2261 7.44899 27.2023C7.45669 27.1941 7.46493 27.1864 7.47318 27.1786C7.48967 27.1632 7.50561 27.1483 7.5221 27.134C7.55509 27.1053 7.58807 27.0783 7.6205 27.053C7.63754 27.0397 7.65403 27.0271 7.67107 27.0144C7.67822 27.0089 7.68592 27.0039 7.69306 26.9984C7.80025 26.9223 7.90195 26.8633 7.98386 26.8209C7.99595 26.8148 8.00804 26.8088 8.01959 26.8027C8.06301 26.7812 8.09929 26.7652 8.12513 26.7542C8.13722 26.7492 8.14712 26.7448 8.15426 26.7421C8.16031 26.7398 8.16471 26.7382 8.16746 26.7371C8.15371 26.725 8.13942 26.7123 8.12513 26.6991C8.10699 26.6825 8.08885 26.6654 8.06961 26.6478C8.04432 26.6241 8.01904 26.5993 7.99265 26.5739C7.98935 26.5706 7.9855 26.5673 7.98221 26.5634C7.96572 26.5475 7.94922 26.5309 7.93218 26.5138C7.91514 26.4967 7.8981 26.4791 7.88161 26.4615C7.86457 26.4438 7.84698 26.4256 7.82994 26.4074C7.81235 26.3887 7.79476 26.3694 7.77717 26.3501C7.75958 26.3308 7.74199 26.311 7.72385 26.2906C7.7057 26.2702 7.68811 26.2492 7.66997 26.2283C7.56168 26.1009 7.45119 25.9587 7.3429 25.8C7.31596 25.7608 7.29013 25.7211 7.26484 25.6814C7.22581 25.6213 7.18898 25.5613 7.1538 25.5006C7.11367 25.4317 7.07519 25.3623 7.03836 25.2922C7.00373 25.2255 6.9702 25.1583 6.93887 25.0905C6.82508 24.8485 6.73218 24.6015 6.65687 24.3518C6.64588 24.316 6.63543 24.2807 6.62554 24.2449C6.61894 24.2212 6.61234 24.1975 6.6063 24.1737C6.60135 24.1567 6.59695 24.139 6.59255 24.1219C6.58321 24.0855 6.57386 24.0492 6.56562 24.0128C6.5156 23.8033 6.47712 23.5927 6.44908 23.3821C6.44523 23.354 6.44139 23.3254 6.43809 23.2972C6.43589 23.278 6.43369 23.2581 6.43149 23.2383C6.42764 23.2057 6.42434 23.1738 6.42105 23.1412C6.4172 23.1016 6.41335 23.0613 6.41005 23.0211C6.4073 22.9891 6.4051 22.9566 6.40291 22.9246C6.39631 22.8265 6.39136 22.7284 6.38861 22.6308C6.38751 22.5999 6.38641 22.569 6.38641 22.5382C6.38477 22.4797 6.38477 22.4213 6.38477 22.3634C6.38532 22.2614 6.38696 22.16 6.39136 22.0597C6.39191 22.0398 6.39301 22.0205 6.39356 22.0007C6.39796 21.9048 6.40346 21.81 6.41115 21.7157C6.41445 21.6727 6.41775 21.6297 6.42215 21.5867C6.42324 21.5718 6.42434 21.5564 6.42599 21.5415C6.42984 21.5013 6.43369 21.461 6.43809 21.4213C6.44413 21.3623 6.45128 21.3045 6.45898 21.2466C6.46392 21.2041 6.46942 21.1622 6.47547 21.1203C6.47712 21.1066 6.47877 21.0933 6.48096 21.0801C6.48536 21.0487 6.48976 21.0178 6.49471 20.9869C6.54418 20.6567 6.60685 20.3458 6.67446 20.0625C6.68435 20.02 6.69425 19.9787 6.70414 19.9379C6.70524 19.934 6.70634 19.9307 6.70689 19.9274C6.71734 19.8877 6.72723 19.8486 6.73713 19.81C6.74702 19.7714 6.75692 19.7334 6.76736 19.6959C6.77231 19.6766 6.77725 19.6573 6.78275 19.6386C6.7932 19.6005 6.80364 19.5636 6.81408 19.5267C6.83442 19.4539 6.85531 19.3839 6.87565 19.3166C6.8806 19.3001 6.8861 19.2836 6.89104 19.267C6.90094 19.2328 6.91138 19.1998 6.92183 19.1678C6.93447 19.1264 6.94711 19.0868 6.96031 19.0487C6.9757 19.0013 6.99054 18.9561 7.00483 18.9137C7.03067 18.837 7.05486 18.7687 7.07629 18.7091C7.09388 18.659 7.10983 18.6154 7.12302 18.5785C7.14061 18.5294 7.15875 18.4809 7.17689 18.4324C7.45229 17.7053 7.80355 17.0179 8.21253 16.3762C9.5736 14.2401 11.5729 12.61 13.5089 11.7137C13.8574 11.5522 14.2038 11.4144 14.544 11.3019C14.9997 11.1509 15.9782 10.8692 17.0468 10.5798C18.1182 10.2898 19.2803 9.99268 20.096 9.81352C20.6084 9.70106 20.8893 9.65586 21.174 9.58475C21.3318 9.54561 21.4901 9.4982 21.6902 9.42764C22.6296 9.09358 22.971 8.76779 23.5592 8.87638Z" fill="white"/>
<path d="M12.4276 15.7672C13.1714 15.7672 13.7744 15.1625 13.7744 14.4166C13.7744 13.6707 13.1714 13.066 12.4276 13.066C11.6838 13.066 11.0808 13.6707 11.0808 14.4166C11.0808 15.1625 11.6838 15.7672 12.4276 15.7672Z" fill="white"/>
<path d="M13.9668 14.389C14.2248 14.389 14.434 14.1793 14.434 13.9205C14.434 13.6617 14.2248 13.4519 13.9668 13.4519C13.7087 13.4519 13.4995 13.6617 13.4995 13.9205C13.4995 14.1793 13.7087 14.389 13.9668 14.389Z" fill="white"/>
<path d="M19.2326 29.5574C23.0847 29.3644 26.1699 28.4561 26.1237 27.5287C26.0775 26.6013 22.9174 26.0059 19.0653 26.1989C15.2133 26.3919 12.128 27.3002 12.1742 28.2276C12.2204 29.155 15.3806 29.7504 19.2326 29.5574Z" fill="#644D9A"/>
<path d="M18.9691 27.8948C23.9633 27.8948 28.0118 24.7727 28.0118 20.9214C28.0118 17.0701 23.9633 13.948 18.9691 13.948C13.975 13.948 9.92651 17.0701 9.92651 20.9214C9.92651 24.7727 13.975 27.8948 18.9691 27.8948Z" fill="#9F92C6"/>
<path d="M21.8826 15.6568C22.9604 15.6568 23.8341 14.7807 23.8341 13.6999C23.8341 12.6191 22.9604 11.7429 21.8826 11.7429C20.8048 11.7429 19.9312 12.6191 19.9312 13.6999C19.9312 14.7807 20.8048 15.6568 21.8826 15.6568Z" fill="#9F92C6"/>
<path d="M20.404 25.6026C23.5273 24.8588 25.6414 22.4913 25.126 20.3147C24.6105 18.1382 21.6607 16.9767 18.5373 17.7206C15.414 18.4645 13.3 20.832 13.8154 23.0085C14.3309 25.1851 17.2807 26.3465 20.404 25.6026Z" fill="#644D9A"/>
<path d="M24.5622 17.5818C24.6707 16.764 23.8073 15.974 22.6336 15.8174C21.4599 15.6608 20.4205 16.1968 20.312 17.0146C20.2035 17.8325 21.0669 18.6225 22.2406 18.7791C23.4143 18.9357 24.4537 18.3997 24.5622 17.5818Z" fill="#644D9A"/>
<path d="M11.7406 29.2729C12.5906 29.2729 13.2798 28.8039 13.2798 28.2255C13.2798 27.647 12.5906 27.1781 11.7406 27.1781C10.8905 27.1781 10.2014 27.647 10.2014 28.2255C10.2014 28.8039 10.8905 29.2729 11.7406 29.2729Z" fill="#644D9A"/>
<path d="M26.6376 28.5563C27.4876 28.5563 28.1767 28.0874 28.1767 27.5089C28.1767 26.9305 27.4876 26.4615 26.6376 26.4615C25.7875 26.4615 25.0984 26.9305 25.0984 27.5089C25.0984 28.0874 25.7875 28.5563 26.6376 28.5563Z" fill="#644D9A"/>
<path d="M13.9805 18.9578C13.9805 18.5352 13.639 18.1926 13.2178 18.1926C12.7966 18.1926 12.4551 18.5352 12.4551 18.9578V20.4594C12.4551 20.882 12.7966 21.2245 13.2178 21.2245C13.639 21.2245 13.9805 20.882 13.9805 20.4594V18.9578Z" fill="#30245B"/>
<path d="M18.4881 18.9578C18.4881 18.5352 18.1466 18.1926 17.7254 18.1926C17.3041 18.1926 16.9626 18.5352 16.9626 18.9578V20.4594C16.9626 20.882 17.3041 21.2245 17.7254 21.2245C18.1466 21.2245 18.4881 20.882 18.4881 20.4594V18.9578Z" fill="#30245B"/>
<path d="M14.5 21.4743C14.5 22.0311 14.9546 22.4809 15.5082 22.4341C15.9842 22.3938 16.3585 21.9936 16.3585 21.5058V21.4743C16.3585 21.3365 16.247 21.2246 16.1095 21.2246H14.7496C14.6121 21.2246 14.5005 21.3365 14.5005 21.4743H14.5Z" fill="#30245B"/>
<path d="M19.1066 22.4373C19.9566 22.4373 20.6457 22.2645 20.6457 22.0514C20.6457 21.8383 19.9566 21.6655 19.1066 21.6655C18.2565 21.6655 17.5674 21.8383 17.5674 22.0514C17.5674 22.2645 18.2565 22.4373 19.1066 22.4373Z" fill="#F8CCE1"/>
<path d="M12.0704 22.5476C12.9205 22.5476 13.6096 22.3749 13.6096 22.1618C13.6096 21.9486 12.9205 21.7759 12.0704 21.7759C11.2204 21.7759 10.5312 21.9486 10.5312 22.1618C10.5312 22.3749 11.2204 22.5476 12.0704 22.5476Z" fill="#F8CCE1"/>
<path d="M13.0324 19.2401C13.2297 19.2401 13.3897 19.0796 13.3897 18.8818C13.3897 18.6839 13.2297 18.5234 13.0324 18.5234C12.835 18.5234 12.675 18.6839 12.675 18.8818C12.675 19.0796 12.835 19.2401 13.0324 19.2401Z" fill="#E6E1F1"/>
<path d="M13.4996 19.4605C13.5907 19.4605 13.6645 19.3865 13.6645 19.2951C13.6645 19.2038 13.5907 19.1298 13.4996 19.1298C13.4086 19.1298 13.3347 19.2038 13.3347 19.2951C13.3347 19.3865 13.4086 19.4605 13.4996 19.4605Z" fill="#E6E1F1"/>
<path d="M17.5399 19.2401C17.7373 19.2401 17.8972 19.0796 17.8972 18.8818C17.8972 18.6839 17.7373 18.5234 17.5399 18.5234C17.3426 18.5234 17.1826 18.6839 17.1826 18.8818C17.1826 19.0796 17.3426 19.2401 17.5399 19.2401Z" fill="#E6E1F1"/>
<path d="M18.0072 19.4605C18.0983 19.4605 18.1721 19.3865 18.1721 19.2951C18.1721 19.2038 18.0983 19.1298 18.0072 19.1298C17.9161 19.1298 17.8423 19.2038 17.8423 19.2951C17.8423 19.3865 17.9161 19.4605 18.0072 19.4605Z" fill="#E6E1F1"/>
<path d="M28.1647 8.56822C28.5033 8.61232 28.8601 8.55499 29.1872 8.37914C29.943 7.97341 30.2822 7.04896 29.9677 6.24964C29.6016 5.31911 28.5347 4.90788 27.6491 5.33014C27.3429 5.47622 27.1005 5.70224 26.9339 5.97125C26.8608 6.08922 26.7888 6.20829 26.7102 6.32295L25.3337 8.32677L27.7524 8.52026C27.8899 8.53128 28.0267 8.55003 28.1642 8.56822H28.1647Z" fill="#E6E1F1"/>
<path d="M28.3846 8.74796C28.3044 8.74796 28.2241 8.743 28.1433 8.73252L28.0894 8.72536C27.9745 8.71047 27.8553 8.69449 27.7398 8.68511L25.0364 8.46847L26.575 6.22872C26.6399 6.13445 26.702 6.03357 26.7619 5.93655L26.7943 5.88363C26.9829 5.57823 27.2544 5.33513 27.5788 5.18023C28.0449 4.95807 28.5875 4.93933 29.0674 5.12951C29.5544 5.3219 29.9287 5.69786 30.1217 6.18847C30.4691 7.07159 30.1008 8.07598 29.2653 8.5247C28.991 8.67188 28.6903 8.74741 28.3846 8.74741V8.74796ZM25.6323 8.18457L27.7668 8.35546C27.8904 8.36539 28.0141 8.38137 28.1329 8.39736L28.1862 8.40452C28.505 8.44587 28.8244 8.38688 29.1097 8.23364C29.7864 7.87036 30.0964 7.02583 29.815 6.31085C29.6561 5.90678 29.3477 5.59643 28.947 5.43822C28.5457 5.27945 28.1103 5.29434 27.7211 5.48011C27.454 5.60745 27.2308 5.80756 27.0752 6.05893L27.0428 6.1113C26.9807 6.21218 26.9164 6.31637 26.8471 6.41725L25.6323 8.18512V8.18457Z" fill="#31235C"/>
<path d="M28.1217 6.61631C28.4253 6.61631 28.6714 6.3695 28.6714 6.06505C28.6714 5.7606 28.4253 5.51379 28.1217 5.51379C27.8181 5.51379 27.572 5.7606 27.572 6.06505C27.572 6.3695 27.8181 6.61631 28.1217 6.61631Z" fill="white"/>
<path d="M28.7501 6.05396C28.8554 6.05396 28.9408 5.96832 28.9408 5.86267C28.9408 5.75703 28.8554 5.67139 28.7501 5.67139C28.6447 5.67139 28.5593 5.75703 28.5593 5.86267C28.5593 5.96832 28.6447 6.05396 28.7501 6.05396Z" fill="white"/>
</g>
<defs>
<clipPath id="clip0_608_10233">
<rect width="25" height="26" fill="white" transform="translate(6 5)"/>
</clipPath>
</defs>
</svg>
