<svg width="39" height="39" viewBox="0 0 39 39" fill="none" xmlns="http://www.w3.org/2000/svg">
<circle cx="19.5" cy="19.5" r="19.5" fill="#FEFEFE"/>
<path d="M31.3755 28.8948C31.1007 29.4389 30.6554 29.6947 30.1112 29.9973C29.8281 30.155 28.9359 30.6191 27.6375 30.7139C27.0449 30.7575 26.5502 30.7106 26.2083 30.6588C25.0682 30.9333 24.1046 31.1031 23.4048 31.2101C21.7029 31.4697 19.1435 31.8418 15.9838 31.4306C14.9833 31.3005 14.1676 31.1235 13.6201 30.9896C13.2138 31.0778 12.6059 31.1836 11.861 31.2101C10.6594 31.2525 9.58633 31.2905 8.78266 30.6037C8.69801 30.5309 8.49297 30.3556 8.31377 30.1042C8.30937 30.0987 8.30552 30.0927 8.30112 30.0866C8.28133 30.0579 8.26154 30.0282 8.2423 29.9978C8.21207 29.9488 8.18294 29.897 8.15545 29.8429C8.14776 29.827 8.14006 29.811 8.13291 29.795C8.12467 29.7773 8.11697 29.7597 8.10928 29.7415C8.10323 29.7266 8.09718 29.7117 8.09114 29.6969C8.08509 29.6814 8.07959 29.6654 8.07409 29.6495C8.07355 29.6473 8.07245 29.6445 8.07135 29.6417C8.0653 29.6241 8.0598 29.6059 8.05431 29.5877C8.04881 29.569 8.04331 29.5502 8.03891 29.5309C8.03397 29.5133 8.03012 29.4951 8.02627 29.4769C8.02572 29.4753 8.02517 29.4731 8.02462 29.4714C8.02132 29.4543 8.01802 29.4372 8.01528 29.4196C8.01473 29.4168 8.01418 29.4141 8.01363 29.4113C8.01088 29.3926 8.00813 29.3733 8.00593 29.354C8.00373 29.3336 8.00208 29.3132 8.00043 29.2928C7.99933 29.2741 7.99824 29.2553 7.99769 29.236C7.99714 29.2162 7.99714 29.1958 7.99769 29.1754C7.99824 29.1506 7.99933 29.1258 8.00153 29.1004C8.00263 29.0905 8.00373 29.08 8.00483 29.0695C8.00648 29.048 8.00978 29.0265 8.01308 29.005C8.01583 28.9885 8.01857 28.9714 8.02187 28.9554C8.02407 28.945 8.02627 28.935 8.02847 28.9246C8.03726 28.8854 8.04771 28.8468 8.0598 28.8099C8.06255 28.8011 8.0653 28.7923 8.0686 28.7834C8.07355 28.7674 8.07959 28.752 8.08564 28.7366C8.09169 28.7211 8.09828 28.7052 8.10488 28.6903C8.11147 28.6743 8.11862 28.6583 8.12632 28.6429C8.14995 28.5938 8.17579 28.5475 8.20382 28.5028C8.21042 28.4924 8.21702 28.4824 8.22361 28.4725C8.23021 28.462 8.23681 28.4521 8.24395 28.4422C8.2511 28.4323 8.2577 28.4224 8.26484 28.413C8.27694 28.3965 8.28958 28.3799 8.30222 28.3639C8.31926 28.343 8.3363 28.322 8.35389 28.3022C8.36159 28.2934 8.36929 28.2851 8.37698 28.2763C8.40062 28.2504 8.42426 28.2261 8.44899 28.2024C8.45669 28.1941 8.46493 28.1864 8.47318 28.1787C8.48967 28.1633 8.50561 28.1484 8.5221 28.1341C8.55509 28.1054 8.58807 28.0784 8.6205 28.053C8.63754 28.0398 8.65403 28.0271 8.67107 28.0144C8.67822 28.0089 8.68592 28.004 8.69306 27.9984C8.80025 27.9224 8.90195 27.8634 8.98386 27.8209C8.99595 27.8149 9.00804 27.8088 9.01959 27.8027C9.06301 27.7812 9.09929 27.7653 9.12513 27.7542C9.13722 27.7493 9.14712 27.7449 9.15426 27.7421C9.16031 27.7399 9.16471 27.7383 9.16746 27.7371C9.15371 27.725 9.13942 27.7123 9.12513 27.6991C9.10699 27.6826 9.08885 27.6655 9.06961 27.6478C9.04432 27.6241 9.01904 27.5993 8.99265 27.574C8.98935 27.5707 8.9855 27.5674 8.98221 27.5635C8.96572 27.5475 8.94922 27.531 8.93218 27.5139C8.91514 27.4968 8.8981 27.4792 8.88161 27.4615C8.86457 27.4439 8.84698 27.4257 8.82994 27.4075C8.81235 27.3888 8.79476 27.3695 8.77717 27.3502C8.75958 27.3309 8.74199 27.311 8.72385 27.2906C8.7057 27.2702 8.68811 27.2493 8.66997 27.2283C8.56168 27.101 8.45119 26.9588 8.3429 26.8C8.31596 26.7609 8.29013 26.7212 8.26484 26.6815C8.22581 26.6214 8.18898 26.5613 8.1538 26.5007C8.11367 26.4318 8.07519 26.3623 8.03836 26.2923C8.00373 26.2256 7.9702 26.1583 7.93887 26.0905C7.82508 25.8485 7.73218 25.6016 7.65687 25.3519C7.64588 25.316 7.63543 25.2807 7.62554 25.2449C7.61894 25.2212 7.61234 25.1975 7.6063 25.1738C7.60135 25.1567 7.59695 25.1391 7.59255 25.122C7.58321 25.0856 7.57386 25.0492 7.56562 25.0128C7.5156 24.8034 7.47712 24.5928 7.44908 24.3822C7.44523 24.3541 7.44139 24.3254 7.43809 24.2973C7.43589 24.278 7.43369 24.2582 7.43149 24.2383C7.42764 24.2058 7.42434 24.1738 7.42105 24.1413C7.4172 24.1016 7.41335 24.0614 7.41005 24.0211C7.4073 23.9892 7.4051 23.9566 7.40291 23.9247C7.39631 23.8265 7.39136 23.7284 7.38861 23.6308C7.38751 23.6 7.38641 23.5691 7.38641 23.5382C7.38477 23.4798 7.38477 23.4214 7.38477 23.3635C7.38532 23.2615 7.38696 23.1601 7.39136 23.0597C7.39191 23.0399 7.39301 23.0206 7.39356 23.0008C7.39796 22.9048 7.40346 22.81 7.41115 22.7158C7.41445 22.6728 7.41775 22.6298 7.42215 22.5868C7.42324 22.5719 7.42434 22.5564 7.42599 22.5416C7.42984 22.5013 7.43369 22.4611 7.43809 22.4214C7.44413 22.3624 7.45128 22.3045 7.45898 22.2466C7.46392 22.2042 7.46942 22.1623 7.47547 22.1204C7.47712 22.1066 7.47877 22.0934 7.48096 22.0802C7.48536 22.0487 7.48976 22.0179 7.49471 21.987C7.54418 21.6568 7.60685 21.3459 7.67446 21.0625C7.68435 21.0201 7.69425 20.9787 7.70414 20.938C7.70524 20.9341 7.70634 20.9308 7.70689 20.9275C7.71734 20.8878 7.72723 20.8486 7.73713 20.8101C7.74702 20.7715 7.75692 20.7334 7.76736 20.696C7.77231 20.6767 7.77725 20.6574 7.78275 20.6386C7.7932 20.6006 7.80364 20.5636 7.81408 20.5267C7.83442 20.4539 7.85531 20.3839 7.87565 20.3167C7.8806 20.3001 7.8861 20.2836 7.89104 20.2671C7.90094 20.2329 7.91138 20.1998 7.92183 20.1678C7.93447 20.1265 7.94711 20.0868 7.96031 20.0488C7.9757 20.0014 7.99054 19.9562 8.00483 19.9137C8.03067 19.8371 8.05486 19.7687 8.07629 19.7092C8.09388 19.659 8.10983 19.6155 8.12302 19.5786C8.14061 19.5295 8.15875 19.481 8.17689 19.4325C8.45229 18.7054 8.80355 18.0179 9.21253 17.3763C10.5736 15.2402 12.5729 13.6101 14.5089 12.7138C14.8574 12.5522 15.2038 12.4144 15.544 12.302C15.9997 12.1509 16.9782 11.8692 18.0468 11.5798C19.1182 11.2899 20.2803 10.9927 21.096 10.8136C21.6084 10.7011 21.8893 10.6559 22.174 10.5848C22.3318 10.5457 22.4901 10.4983 22.6902 10.4277C23.6296 10.0936 23.971 9.76785 24.5592 9.87645H24.5597C24.5779 9.87975 24.596 9.88361 24.6136 9.88802C25.105 9.99882 25.4233 10.3461 25.5486 10.4828C26.0621 11.0435 26.0582 11.6421 26.2633 12.4673C26.4414 13.184 26.6931 13.6801 27.1978 14.6724C28.1317 16.5097 28.8799 16.3405 29.9463 18.035C31.0308 19.7588 31.2221 21.4688 31.2656 22.0041C31.3755 23.353 31.1413 24.5443 30.9907 25.3116C30.8516 26.0194 30.6851 26.6027 30.551 27.0205C30.6422 27.031 31.215 27.1071 31.4854 27.5718C31.7845 28.0855 31.4849 28.6787 31.3755 28.8948Z" fill="#E6E1F1"/>
<path d="M18.8423 32C17.9441 32 16.97 31.9482 15.9338 31.8137C15.1543 31.7123 14.3743 31.5684 13.614 31.3859C13.0423 31.505 12.4575 31.5755 11.8742 31.5965C10.6269 31.6406 9.45003 31.6819 8.53257 30.8981C8.43253 30.8121 8.2077 30.6186 8.00376 30.3347C7.99881 30.3281 7.99386 30.3209 7.98892 30.3137L7.98452 30.3071C7.96198 30.274 7.93944 30.2404 7.91746 30.2057C7.87898 30.1428 7.84434 30.0816 7.81246 30.0194L7.80861 30.0111C7.79927 29.9923 7.79047 29.973 7.78223 29.9543C7.77398 29.9367 7.76464 29.9152 7.75474 29.8926L7.73275 29.838C7.72506 29.8181 7.71791 29.7972 7.71077 29.7768L7.70802 29.7685C7.70032 29.7465 7.69318 29.7233 7.68658 29.7002L7.68493 29.6947C7.67833 29.6721 7.67229 29.65 7.66679 29.6269C7.66239 29.6103 7.65854 29.5938 7.6547 29.5767L7.65195 29.5679L7.64755 29.5447C7.6437 29.5243 7.6404 29.5067 7.63711 29.4885L7.63326 29.4675C7.62996 29.4449 7.62666 29.4212 7.62391 29.3981C7.62117 29.3722 7.61897 29.3479 7.61732 29.3242V29.3148C7.61512 29.2928 7.61402 29.2707 7.61347 29.2476C7.61292 29.2195 7.61292 29.1925 7.61347 29.1649C7.61402 29.1329 7.61567 29.1004 7.61842 29.0668L7.62171 29.0332C7.62446 29.0039 7.62831 28.9747 7.63271 28.9455L7.63436 28.9361C7.63766 28.9157 7.64095 28.8953 7.64535 28.876L7.65195 28.8446C7.66459 28.7878 7.67833 28.7371 7.69428 28.6892C7.69702 28.6798 7.70087 28.6693 7.70417 28.6588C7.71132 28.6374 7.71901 28.6164 7.72726 28.5955C7.7344 28.5767 7.74265 28.5569 7.7509 28.5381C7.76024 28.5161 7.77013 28.494 7.78058 28.4731C7.80971 28.413 7.8416 28.3557 7.87788 28.2978C7.88557 28.2851 7.89327 28.2741 7.90096 28.2625C7.91086 28.2465 7.9213 28.2316 7.93175 28.2167L7.93615 28.2107C7.94274 28.2013 7.94934 28.1919 7.95593 28.1831C7.97023 28.1638 7.98507 28.144 7.99991 28.1252L8.00376 28.1203C8.02575 28.0933 8.04554 28.069 8.06588 28.0464L8.09226 28.0166C8.11975 27.9869 8.14723 27.9582 8.17637 27.9301C8.18736 27.9185 8.1989 27.908 8.21045 27.897C8.23024 27.8783 8.24948 27.8606 8.26982 27.843C8.3061 27.8116 8.34403 27.7801 8.3836 27.7493C8.40339 27.7338 8.42098 27.7206 8.43912 27.7068C8.44627 27.7013 8.45342 27.6964 8.46111 27.6908L8.45891 27.6925L8.47101 27.6837C8.48915 27.671 8.50729 27.6583 8.52543 27.6456C8.51443 27.6341 8.50399 27.6219 8.493 27.6104C8.47596 27.5916 8.45836 27.5718 8.44022 27.5519C8.42373 27.5332 8.41054 27.5177 8.39735 27.5029L8.37976 27.4819C8.25168 27.3309 8.13294 27.176 8.02575 27.0183C7.99716 26.977 7.96858 26.9334 7.94109 26.8899C7.90096 26.8287 7.86029 26.762 7.82181 26.6953C7.77948 26.6225 7.7377 26.5475 7.69867 26.4731C7.65635 26.3915 7.62116 26.3204 7.59038 26.2532C7.47384 26.0057 7.37215 25.7394 7.28914 25.4643C7.2776 25.4263 7.26606 25.3877 7.25506 25.3486C7.24847 25.3249 7.24187 25.3006 7.23527 25.2758C7.23088 25.2598 7.22648 25.2433 7.22263 25.2273L7.22043 25.219C7.20999 25.1782 7.19954 25.1385 7.19075 25.0983C7.14017 24.8855 7.0984 24.6606 7.06816 24.4335C7.06431 24.4043 7.05992 24.3728 7.05662 24.3425L7.05002 24.2813C7.04617 24.2494 7.04288 24.2152 7.03903 24.1804C7.03463 24.1374 7.03078 24.095 7.02748 24.0531C7.02474 24.0206 7.02199 23.9853 7.01979 23.9511C7.01264 23.8414 7.0077 23.7405 7.00495 23.6424C7.00385 23.6088 7.00275 23.5768 7.00275 23.5443C7.0011 23.4842 7.0011 23.4236 7.0011 23.364C7.00165 23.2383 7.00385 23.1375 7.00824 23.0438L7.01044 22.9837C7.01539 22.8707 7.02144 22.7758 7.02858 22.6849V22.681C7.03243 22.6386 7.03518 22.5961 7.03958 22.5537C7.04068 22.5366 7.04233 22.5195 7.04398 22.503C7.04782 22.4616 7.05167 22.4203 7.05662 22.3795C7.06267 22.3205 7.07036 22.2599 7.07806 22.1992C7.083 22.1557 7.0885 22.1132 7.0951 22.0702C7.0973 22.0542 7.09895 22.0383 7.10169 22.0228C7.10609 21.9903 7.11104 21.9583 7.11599 21.9264C7.16271 21.6143 7.22538 21.2924 7.30124 20.9732C7.31058 20.9324 7.32103 20.8905 7.33092 20.8492L7.33587 20.8294C7.34301 20.8023 7.34961 20.7759 7.35676 20.7494L7.36555 20.7141C7.37545 20.6745 7.38589 20.6353 7.39689 20.5967C7.40238 20.5758 7.40788 20.5543 7.41393 20.5339C7.42437 20.4958 7.43482 20.4589 7.44526 20.422C7.46615 20.3476 7.48759 20.2753 7.50903 20.2053L7.52442 20.1557C7.53376 20.1226 7.54531 20.0868 7.55685 20.0515C7.57004 20.008 7.58379 19.9661 7.59753 19.9258C7.61292 19.8784 7.62776 19.8332 7.64205 19.7908C7.66899 19.7109 7.69428 19.6403 7.71626 19.5786C7.72781 19.546 7.73935 19.5135 7.7498 19.4843L7.76244 19.449C7.78058 19.3977 7.79927 19.3476 7.81851 19.2974C8.09556 18.5659 8.45617 17.8504 8.89043 17.169C10.1987 15.1161 12.1887 13.3648 14.3495 12.3637C14.7107 12.1967 15.0724 12.0523 15.4253 11.9359C15.8821 11.7843 16.849 11.5054 17.9485 11.2077C19.1573 10.8808 20.2748 10.5997 21.0158 10.4371C21.25 10.3858 21.4341 10.3489 21.5963 10.3158C21.7859 10.2778 21.9355 10.2474 22.0833 10.2105C22.2362 10.1725 22.3846 10.1273 22.5649 10.0639C22.8518 9.96189 23.0816 9.85991 23.2844 9.77005C23.7374 9.5694 24.0975 9.40953 24.5944 9.49057H24.596L24.6307 9.49663C24.6554 9.50104 24.6801 9.50655 24.7043 9.51207C25.3106 9.65043 25.6905 10.065 25.834 10.221C26.2985 10.7281 26.4073 11.2678 26.5222 11.8389C26.5568 12.0098 26.592 12.1862 26.6387 12.3736C26.8069 13.0495 27.0527 13.5329 27.5424 14.4965C28.0135 15.4226 28.4165 15.7887 28.8837 16.2126C29.2916 16.5825 29.7534 17.0014 30.2734 17.8283C31.3134 19.4815 31.5828 21.1342 31.6509 21.9721C31.7653 23.3734 31.5278 24.5829 31.3706 25.3838C31.2804 25.8436 31.1694 26.2995 31.0397 26.7449C31.3057 26.8447 31.6185 27.0304 31.8197 27.3766C32.2248 28.0729 31.845 28.8226 31.7207 29.069C31.3865 29.7299 30.8341 30.037 30.2998 30.3341C29.8584 30.58 28.9294 31.0061 27.6672 31.0982C27.1879 31.1334 26.7041 31.1175 26.2276 31.0508C25.3139 31.2685 24.3844 31.4504 23.4642 31.591C22.3769 31.7569 20.7882 31.9995 18.8439 31.9995L18.8423 32ZM13.625 30.5938L13.7113 30.6147C14.4716 30.8005 15.2527 30.9466 16.0333 31.048C19.204 31.4609 21.7975 31.0651 23.3471 30.8286C24.2701 30.6875 25.2024 30.5045 26.1187 30.2834L26.1918 30.2658L26.266 30.2768C26.7102 30.344 27.1621 30.3617 27.6095 30.3286C28.7243 30.247 29.5384 29.8744 29.9243 29.6594C30.4702 29.3556 30.8159 29.1478 31.032 28.72C31.1177 28.5497 31.3464 28.0988 31.1529 27.7658C30.9819 27.472 30.5851 27.4125 30.507 27.4036L30.0409 27.3502L30.1849 26.902C30.358 26.3618 30.5026 25.8017 30.6131 25.2367C30.7626 24.4759 30.9874 23.3293 30.8819 22.035C30.8198 21.2676 30.573 19.7539 29.6209 18.2407C29.1569 17.5036 28.7545 17.1381 28.3654 16.7853C27.886 16.3498 27.3896 15.9 26.8548 14.8477C26.3545 13.8642 26.0791 13.3224 25.8895 12.5605C25.8389 12.3565 25.8015 12.1713 25.7653 11.9922C25.6597 11.4696 25.5839 11.092 25.265 10.7436C25.1567 10.6256 24.9028 10.3483 24.529 10.264L24.5202 10.2618C24.5136 10.2601 24.507 10.2585 24.5004 10.2574L24.4894 10.2552C24.2173 10.205 24.0293 10.2816 23.5928 10.4751C23.3883 10.5661 23.1338 10.6785 22.8183 10.791C22.6132 10.8632 22.4428 10.915 22.2658 10.9591C22.1015 10.9999 21.9443 11.0319 21.7447 11.0721C21.5859 11.1041 21.4055 11.1405 21.1774 11.1906C20.4485 11.3511 19.3436 11.6283 18.1464 11.9525C17.0761 12.2424 16.102 12.523 15.6639 12.6686C15.3385 12.7761 15.0037 12.9095 14.6695 13.0644C12.6378 14.0048 10.7671 15.6525 9.53578 17.5841C9.1301 18.2208 8.79368 18.8889 8.53587 19.5697C8.51883 19.6149 8.50124 19.6618 8.4842 19.7092L8.47101 19.7461C8.46111 19.7732 8.45012 19.8035 8.43858 19.8371C8.41659 19.8977 8.3935 19.9639 8.36821 20.0378C8.35447 20.0785 8.34018 20.1226 8.32534 20.1684L8.32259 20.1761C8.31104 20.2097 8.2995 20.245 8.28851 20.2814L8.28631 20.288C8.27696 20.3161 8.26817 20.3448 8.25937 20.3751L8.24288 20.428C8.22309 20.4942 8.20275 20.5614 8.18296 20.6315C8.17252 20.6684 8.16207 20.7042 8.15218 20.7412L8.14998 20.7483C8.14558 20.7627 8.14228 20.7775 8.13844 20.7924L8.13624 20.8007C8.12634 20.8354 8.11755 20.8707 8.1082 20.9065L8.09941 20.9407C8.09281 20.9661 8.08621 20.992 8.07962 21.0179C8.07797 21.0251 8.07632 21.0317 8.07467 21.0372C8.06588 21.0741 8.05653 21.1116 8.04774 21.1502C7.97627 21.4501 7.91801 21.7505 7.87403 22.0443C7.86908 22.0763 7.86468 22.105 7.86084 22.1336L7.85919 22.1436C7.85809 22.1513 7.85699 22.159 7.85589 22.1667L7.85479 22.1755C7.84929 22.2141 7.84434 22.2527 7.8394 22.2913V22.2974C7.8317 22.3514 7.82456 22.4054 7.81906 22.4611C7.81466 22.5019 7.81081 22.5399 7.80751 22.5779V22.5846C7.80587 22.5945 7.80532 22.605 7.80422 22.6143L7.80312 22.6259C7.79927 22.6639 7.79652 22.702 7.79322 22.7395V22.745C7.78608 22.8277 7.78058 22.9142 7.77618 23.0178L7.77398 23.0708C7.77013 23.1595 7.76794 23.2516 7.76739 23.3651C7.76739 23.4175 7.76739 23.4721 7.76904 23.5272V23.5377C7.76904 23.5625 7.77013 23.5878 7.77123 23.6126V23.6193C7.77398 23.7075 7.77838 23.7984 7.78498 23.8982C7.78718 23.928 7.78882 23.9577 7.79157 23.9875C7.79487 24.0272 7.79872 24.0658 7.80202 24.1033C7.80477 24.1319 7.80806 24.1617 7.81136 24.192L7.81796 24.2527C7.82071 24.2775 7.82456 24.3034 7.82785 24.3287C7.85479 24.531 7.89162 24.73 7.93724 24.9224C7.94549 24.9594 7.95429 24.9919 7.96253 25.0244L7.96473 25.0338C7.96748 25.0443 7.97023 25.0553 7.97298 25.0652L7.97627 25.0768C7.98177 25.0977 7.98782 25.1192 7.99331 25.1402C8.00266 25.1733 8.012 25.2052 8.0219 25.2378C8.09446 25.4781 8.18241 25.7091 8.28411 25.9252C8.31104 25.9836 8.34128 26.0448 8.37701 26.1131C8.40999 26.176 8.44627 26.2416 8.48365 26.305C8.51608 26.3612 8.55017 26.4163 8.5848 26.4698C8.60953 26.5084 8.63262 26.5442 8.65681 26.5795C8.74971 26.7162 8.8514 26.8491 8.96024 26.977L8.97893 26.9985C8.98883 27.01 8.99872 27.0216 9.00862 27.0326L9.01247 27.0371C9.02841 27.0547 9.0438 27.0718 9.05919 27.0889C9.07568 27.1071 9.09217 27.1247 9.10811 27.1423C9.12186 27.1572 9.1356 27.1716 9.14934 27.1853L9.16089 27.1969C9.17463 27.2118 9.18892 27.2261 9.20266 27.2405L9.20816 27.246C9.22135 27.2592 9.23455 27.2724 9.24774 27.2851L9.28182 27.3182C9.29831 27.3342 9.31425 27.3496 9.3302 27.3645L9.38187 27.4125C9.39561 27.4251 9.4077 27.4362 9.41925 27.4461L9.8887 27.8601L9.30821 28.0938C9.30381 28.0955 9.29776 28.0977 9.28952 28.101L9.26863 28.1098C9.25214 28.117 9.2241 28.1291 9.19057 28.1456C9.17848 28.1517 9.16583 28.1583 9.15319 28.1644C9.10042 28.1919 9.01247 28.241 8.91627 28.3088C8.91132 28.3127 8.90582 28.3165 8.90033 28.3204L8.90363 28.3176L8.89703 28.3226C8.88219 28.3336 8.86734 28.3452 8.8525 28.3568C8.82667 28.3772 8.79863 28.3998 8.77115 28.424C8.75795 28.435 8.74586 28.4472 8.73267 28.4593L8.71178 28.4797C8.69309 28.4973 8.6755 28.5155 8.65791 28.5348L8.64032 28.5547C8.62438 28.5723 8.61173 28.5883 8.59909 28.6043C8.59084 28.6147 8.58095 28.6274 8.5716 28.6401L8.55236 28.6671C8.54962 28.671 8.54742 28.6743 8.54522 28.6781L8.54027 28.6859C8.53532 28.693 8.53038 28.7007 8.52543 28.7085C8.50454 28.7415 8.48585 28.7752 8.46936 28.8099L8.46661 28.8149C8.46276 28.822 8.46001 28.8297 8.45672 28.8369L8.45287 28.8463C8.44847 28.8556 8.44407 28.8661 8.44022 28.876C8.43693 28.8838 8.43418 28.8904 8.43198 28.897L8.42153 28.929C8.41329 28.9538 8.40614 28.9802 8.4001 29.0078L8.3946 29.0337C8.39295 29.042 8.3913 29.0519 8.38965 29.0613L8.38855 29.0668C8.38745 29.0745 8.38525 29.0861 8.38415 29.0977L8.38031 29.1351C8.37921 29.1511 8.37811 29.1671 8.37811 29.1831C8.37811 29.1974 8.37811 29.2112 8.37811 29.2239C8.37811 29.2371 8.37921 29.2503 8.38031 29.2641C8.38141 29.2796 8.38306 29.295 8.3847 29.3104C8.3858 29.3204 8.38745 29.3319 8.3891 29.3435L8.39185 29.3584C8.3924 29.3634 8.3935 29.3689 8.3946 29.3738L8.399 29.3948C8.4012 29.4064 8.40339 29.4157 8.40559 29.4251L8.40999 29.4433C8.41219 29.4543 8.41549 29.4648 8.41879 29.4753C8.42208 29.4868 8.42593 29.499 8.42978 29.5105C8.43143 29.5149 8.43308 29.5194 8.43418 29.5238C8.43748 29.5337 8.44077 29.5431 8.44462 29.5524L8.46111 29.5938C8.46496 29.6032 8.47101 29.6169 8.47705 29.6302C8.4842 29.6456 8.4897 29.6577 8.49574 29.6699C8.51773 29.7123 8.54082 29.7542 8.56501 29.7933C8.57875 29.8154 8.59579 29.8407 8.61283 29.865L8.62218 29.8777C8.7728 30.0888 8.95035 30.2415 9.02621 30.3066C9.71774 30.8975 10.7023 30.8628 11.8423 30.8225C12.4102 30.8021 12.9791 30.731 13.5343 30.6103L13.6212 30.5916L13.625 30.5938ZM9.25324 27.2901L9.25654 27.2934C9.25654 27.2934 9.25434 27.2912 9.25324 27.2901ZM7.33477 20.8299C7.33477 20.8299 7.33477 20.8305 7.33477 20.831V20.8299Z" fill="#31235C"/>
<path d="M31.3755 28.8948C31.1007 29.4389 30.6554 29.6947 30.1112 29.9973C29.8281 30.155 28.9359 30.6191 27.6375 30.7139C27.0449 30.7575 26.5502 30.7106 26.2083 30.6588C25.0682 30.9333 24.1046 31.1031 23.4048 31.2101C21.7029 31.4697 19.1435 31.8418 15.9838 31.4306C14.9833 31.3005 14.1676 31.1235 13.6201 30.9896C13.2138 31.0778 12.6059 31.1836 11.861 31.2101C10.6594 31.2525 9.58633 31.2905 8.78266 30.6037C8.69801 30.5309 8.49297 30.3556 8.31377 30.1042C8.30937 30.0987 8.30552 30.0927 8.30112 30.0866C8.28133 30.0579 8.26154 30.0282 8.2423 29.9978C8.21207 29.9488 8.18294 29.897 8.15545 29.8429C8.14776 29.827 8.14006 29.811 8.13291 29.795C8.12467 29.7773 8.11697 29.7597 8.10928 29.7415C8.10323 29.7266 8.09718 29.7117 8.09114 29.6969C8.08509 29.6814 8.07959 29.6654 8.07409 29.6495C8.07355 29.6473 8.07245 29.6445 8.07135 29.6417C8.0653 29.6241 8.0598 29.6059 8.05431 29.5877C8.04881 29.569 8.04331 29.5502 8.03891 29.5309C8.03397 29.5133 8.03012 29.4951 8.02627 29.4769C8.02572 29.4753 8.02517 29.4731 8.02462 29.4714C8.02132 29.4543 8.01802 29.4372 8.01528 29.4196C8.01473 29.4168 8.01418 29.4141 8.01363 29.4113C8.01088 29.3926 8.00813 29.3733 8.00593 29.354C8.00373 29.3336 8.00208 29.3132 8.00043 29.2928C7.99933 29.2741 7.99824 29.2553 7.99769 29.236C7.99714 29.2162 7.99714 29.1958 7.99769 29.1754C7.99824 29.1506 7.99933 29.1258 8.00153 29.1004C8.00263 29.0905 8.00373 29.08 8.00483 29.0695C8.00648 29.048 8.00978 29.0265 8.01308 29.005C8.01583 28.9885 8.01857 28.9714 8.02187 28.9554C8.02407 28.945 8.02627 28.935 8.02847 28.9246C8.03726 28.8854 8.04771 28.8468 8.0598 28.8099C8.06255 28.8011 8.0653 28.7923 8.0686 28.7834C8.07355 28.7674 8.07959 28.752 8.08564 28.7366C8.09169 28.7211 8.09828 28.7052 8.10488 28.6903C8.11147 28.6743 8.11862 28.6583 8.12632 28.6429C8.14995 28.5938 8.17579 28.5475 8.20382 28.5028C8.21042 28.4924 8.21702 28.4824 8.22361 28.4725C8.23021 28.462 8.23681 28.4521 8.24395 28.4422C8.2511 28.4323 8.2577 28.4224 8.26484 28.413C8.27694 28.3965 8.28958 28.3799 8.30222 28.3639C8.31926 28.343 8.3363 28.322 8.35389 28.3022C8.36159 28.2934 8.36929 28.2851 8.37698 28.2763C8.40062 28.2504 8.42426 28.2261 8.44899 28.2024C8.45669 28.1941 8.46493 28.1864 8.47318 28.1787C8.48967 28.1633 8.50561 28.1484 8.5221 28.1341C8.55509 28.1054 8.58807 28.0784 8.6205 28.053C8.63754 28.0398 8.65403 28.0271 8.67107 28.0144C8.67822 28.0089 8.68592 28.004 8.69306 27.9984C8.80025 27.9224 8.90195 27.8634 8.98386 27.8209C8.99595 27.8149 9.00804 27.8088 9.01959 27.8027C9.06301 27.7812 9.09929 27.7653 9.12513 27.7542C9.13722 27.7493 9.14712 27.7449 9.15426 27.7421C9.16031 27.7399 9.16471 27.7383 9.16746 27.7371C9.15371 27.725 9.13942 27.7123 9.12513 27.6991C9.10699 27.6826 9.08885 27.6655 9.06961 27.6478C9.04432 27.6241 9.01904 27.5993 8.99265 27.574C8.98935 27.5707 8.9855 27.5674 8.98221 27.5635C8.96572 27.5475 8.94922 27.531 8.93218 27.5139C8.91514 27.4968 8.8981 27.4792 8.88161 27.4615C8.86457 27.4439 8.84698 27.4257 8.82994 27.4075C8.81235 27.3888 8.79476 27.3695 8.77717 27.3502C8.75958 27.3309 8.74199 27.311 8.72385 27.2906C8.7057 27.2702 8.68811 27.2493 8.66997 27.2283C8.56168 27.101 8.45119 26.9588 8.3429 26.8C8.31596 26.7609 8.29013 26.7212 8.26484 26.6815C8.22581 26.6214 8.18898 26.5613 8.1538 26.5007C8.11367 26.4318 8.07519 26.3623 8.03836 26.2923C8.00373 26.2256 7.9702 26.1583 7.93887 26.0905C7.82508 25.8485 7.73218 25.6016 7.65687 25.3519C7.64588 25.316 7.63543 25.2807 7.62554 25.2449C7.61894 25.2212 7.61234 25.1975 7.6063 25.1738C7.60135 25.1567 7.59695 25.1391 7.59255 25.122C7.58321 25.0856 7.57386 25.0492 7.56562 25.0128C7.5156 24.8034 7.47712 24.5928 7.44908 24.3822C7.44523 24.3541 7.44139 24.3254 7.43809 24.2973C7.43589 24.278 7.43369 24.2582 7.43149 24.2383C7.42764 24.2058 7.42434 24.1738 7.42105 24.1413C7.4172 24.1016 7.41335 24.0614 7.41005 24.0211C7.4073 23.9892 7.4051 23.9566 7.40291 23.9247C7.39631 23.8265 7.39136 23.7284 7.38861 23.6308C7.38751 23.6 7.38641 23.5691 7.38641 23.5382C7.38477 23.4798 7.38477 23.4214 7.38477 23.3635C7.38532 23.2615 7.38696 23.1601 7.39136 23.0597C7.39191 23.0399 7.39301 23.0206 7.39356 23.0008C7.39796 22.9048 7.40346 22.81 7.41115 22.7158C7.41445 22.6728 7.41775 22.6298 7.42215 22.5868C7.42324 22.5719 7.42434 22.5564 7.42599 22.5416C7.42984 22.5013 7.43369 22.4611 7.43809 22.4214C7.44413 22.3624 7.45128 22.3045 7.45898 22.2466C7.46392 22.2042 7.46942 22.1623 7.47547 22.1204C7.47712 22.1066 7.47877 22.0934 7.48096 22.0802C7.48536 22.0487 7.48976 22.0179 7.49471 21.987C7.54418 21.6568 7.60685 21.3459 7.67446 21.0625C7.68435 21.0201 7.69425 20.9787 7.70414 20.938C7.70524 20.9341 7.70634 20.9308 7.70689 20.9275C7.71734 20.8878 7.72723 20.8486 7.73713 20.8101C7.74702 20.7715 7.75692 20.7334 7.76736 20.696C7.77231 20.6767 7.77725 20.6574 7.78275 20.6386C7.7932 20.6006 7.80364 20.5636 7.81408 20.5267C7.83442 20.4539 7.85531 20.3839 7.87565 20.3167C7.8806 20.3001 7.8861 20.2836 7.89104 20.2671C7.90094 20.2329 7.91138 20.1998 7.92183 20.1678C7.93447 20.1265 7.94711 20.0868 7.96031 20.0488C7.9757 20.0014 7.99054 19.9562 8.00483 19.9137C8.03067 19.8371 8.05486 19.7687 8.07629 19.7092C8.09388 19.659 8.10983 19.6155 8.12302 19.5786C8.14061 19.5295 8.15875 19.481 8.17689 19.4325C8.45229 18.7054 8.80355 18.0179 9.21253 17.3763C10.5736 15.2402 12.5729 13.6101 14.5089 12.7138C14.8574 12.5522 15.2038 12.4144 15.544 12.302C15.9997 12.1509 16.9782 11.8692 18.0468 11.5798C19.1182 11.2899 20.2803 10.9927 21.096 10.8136C21.6084 10.7011 21.8893 10.6559 22.174 10.5848C22.3318 10.5457 22.4901 10.4983 22.6902 10.4277C23.6296 10.0936 23.971 9.76785 24.5592 9.87645H24.5597C24.5779 9.87975 24.596 9.88361 24.6136 9.88802C25.105 9.99882 25.4233 10.3461 25.5486 10.4828C26.0621 11.0435 26.0582 11.6421 26.2633 12.4673C26.4414 13.184 26.6931 13.6801 27.1978 14.6724C28.1317 16.5097 28.8799 16.3405 29.9463 18.035C31.0308 19.7588 31.2221 21.4688 31.2656 22.0041C31.3755 23.353 31.1413 24.5443 30.9907 25.3116C30.8516 26.0194 30.6851 26.6027 30.551 27.0205C30.6422 27.031 31.215 27.1071 31.4854 27.5718C31.7845 28.0855 31.4849 28.6787 31.3755 28.8948Z" fill="#E6E1F1"/>
<path d="M24.5592 9.87645C24.3805 10.0203 24.1997 10.1576 24.1194 10.2072C22.4153 11.2546 19.6668 12.0263 16.7534 13.0186C15.0427 13.6013 13.9482 14.313 13.2023 14.8515C11.0386 16.4132 10.1294 18.6844 9.74245 19.6861C9.0938 21.3641 8.45944 23.0063 8.96077 24.7659C9.4665 26.5387 10.8237 27.3717 10.4675 28.1925C10.1679 28.8843 9.03992 28.6748 8.45889 29.7228C8.39842 29.8319 8.35115 29.9416 8.31377 30.0491C8.30937 30.0618 8.30497 30.0739 8.30112 30.0866C8.28133 30.0579 8.26154 30.0282 8.2423 29.9979C8.21207 29.9488 8.18294 29.897 8.15545 29.8429C8.14776 29.827 8.14006 29.811 8.13291 29.795C8.12467 29.7773 8.11697 29.7597 8.10928 29.7415C8.10323 29.7266 8.09718 29.7117 8.09114 29.6969C8.08509 29.6814 8.07959 29.6654 8.07409 29.6495C8.07355 29.6473 8.07245 29.6445 8.07135 29.6417C8.0653 29.6241 8.0598 29.6059 8.05431 29.5877C8.04881 29.569 8.04331 29.5502 8.03891 29.5309C8.03397 29.5133 8.03012 29.4951 8.02627 29.4769C8.02572 29.4753 8.02517 29.4731 8.02462 29.4714C8.02132 29.4543 8.01802 29.4372 8.01528 29.4196C8.01473 29.4168 8.01418 29.4141 8.01363 29.4113C8.01088 29.3926 8.00813 29.3733 8.00593 29.354C8.00373 29.3336 8.00208 29.3132 8.00043 29.2928C7.99933 29.2741 7.99824 29.2553 7.99769 29.236C7.99714 29.2162 7.99714 29.1958 7.99769 29.1754C7.99824 29.1506 7.99933 29.1258 8.00153 29.1004C8.00263 29.0905 8.00373 29.08 8.00483 29.0695C8.00648 29.048 8.00978 29.0265 8.01308 29.005C8.01583 28.9885 8.01857 28.9714 8.02187 28.9554C8.02407 28.945 8.02627 28.935 8.02847 28.9246C8.03726 28.8854 8.04771 28.8468 8.0598 28.8099C8.06255 28.8011 8.0653 28.7923 8.0686 28.7834C8.07355 28.7674 8.07959 28.752 8.08564 28.7366C8.09169 28.7211 8.09828 28.7052 8.10488 28.6903C8.11147 28.6743 8.11862 28.6583 8.12632 28.6429C8.14995 28.5938 8.17579 28.5475 8.20382 28.5028C8.21042 28.4924 8.21702 28.4824 8.22361 28.4725C8.23021 28.4621 8.23681 28.4521 8.24395 28.4422C8.2511 28.4323 8.2577 28.4224 8.26484 28.413C8.27694 28.3965 8.28958 28.3799 8.30222 28.3639C8.31926 28.343 8.3363 28.322 8.35389 28.3022C8.36159 28.2934 8.36929 28.2851 8.37698 28.2763C8.40062 28.2504 8.42426 28.2261 8.44899 28.2024C8.45669 28.1941 8.46493 28.1864 8.47318 28.1787C8.48967 28.1633 8.50561 28.1484 8.5221 28.1341C8.55509 28.1054 8.58807 28.0784 8.6205 28.053C8.63754 28.0398 8.65403 28.0271 8.67107 28.0144C8.67822 28.0089 8.68592 28.004 8.69306 27.9984C8.80025 27.9224 8.90195 27.8634 8.98386 27.8209C8.99595 27.8149 9.00804 27.8088 9.01959 27.8027C9.06301 27.7812 9.09929 27.7653 9.12513 27.7542C9.13722 27.7493 9.14712 27.7449 9.15426 27.7421C9.16031 27.7399 9.16471 27.7383 9.16746 27.7372C9.15371 27.725 9.13942 27.7123 9.12513 27.6991C9.10699 27.6826 9.08885 27.6655 9.06961 27.6478C9.04432 27.6241 9.01904 27.5993 8.99265 27.574C8.98935 27.5707 8.9855 27.5674 8.98221 27.5635C8.96572 27.5475 8.94922 27.531 8.93218 27.5139C8.91514 27.4968 8.8981 27.4792 8.88161 27.4615C8.86457 27.4439 8.84698 27.4257 8.82994 27.4075C8.81235 27.3888 8.79476 27.3695 8.77717 27.3502C8.75958 27.3309 8.74199 27.311 8.72385 27.2906C8.7057 27.2702 8.68811 27.2493 8.66997 27.2283C8.56168 27.101 8.45119 26.9588 8.3429 26.8C8.31596 26.7609 8.29013 26.7212 8.26484 26.6815C8.22581 26.6214 8.18898 26.5613 8.1538 26.5007C8.11367 26.4318 8.07519 26.3623 8.03836 26.2923C8.00373 26.2256 7.9702 26.1584 7.93887 26.0905C7.82508 25.8485 7.73218 25.6016 7.65687 25.3519C7.64588 25.316 7.63543 25.2808 7.62554 25.2449C7.61894 25.2212 7.61234 25.1975 7.6063 25.1738C7.60135 25.1567 7.59695 25.1391 7.59255 25.122C7.58321 25.0856 7.57386 25.0492 7.56562 25.0128C7.5156 24.8034 7.47712 24.5928 7.44908 24.3822C7.44523 24.3541 7.44139 24.3254 7.43809 24.2973C7.43589 24.278 7.43369 24.2582 7.43149 24.2383C7.42764 24.2058 7.42434 24.1738 7.42105 24.1413C7.4172 24.1016 7.41335 24.0614 7.41005 24.0211C7.4073 23.9892 7.4051 23.9566 7.40291 23.9247C7.39631 23.8265 7.39136 23.7284 7.38861 23.6308C7.38751 23.6 7.38641 23.5691 7.38641 23.5382C7.38477 23.4798 7.38477 23.4214 7.38477 23.3635C7.38532 23.2615 7.38696 23.1601 7.39136 23.0597C7.39191 23.0399 7.39301 23.0206 7.39356 23.0008C7.39796 22.9048 7.40346 22.81 7.41115 22.7158C7.41445 22.6728 7.41775 22.6298 7.42215 22.5868C7.42324 22.5719 7.42434 22.5564 7.42599 22.5416C7.42984 22.5013 7.43369 22.4611 7.43809 22.4214C7.44413 22.3624 7.45128 22.3045 7.45898 22.2466C7.46392 22.2042 7.46942 22.1623 7.47547 22.1204C7.47712 22.1066 7.47877 22.0934 7.48096 22.0802C7.48536 22.0487 7.48976 22.0179 7.49471 21.987C7.54418 21.6568 7.60685 21.3459 7.67446 21.0625C7.68435 21.0201 7.69425 20.9787 7.70414 20.938C7.70524 20.9341 7.70634 20.9308 7.70689 20.9275C7.71734 20.8878 7.72723 20.8486 7.73713 20.8101C7.74702 20.7715 7.75692 20.7334 7.76736 20.696C7.77231 20.6767 7.77725 20.6574 7.78275 20.6386C7.7932 20.6006 7.80364 20.5637 7.81408 20.5267C7.83442 20.4539 7.85531 20.3839 7.87565 20.3167C7.8806 20.3001 7.8861 20.2836 7.89104 20.2671C7.90094 20.2329 7.91138 20.1998 7.92183 20.1678C7.93447 20.1265 7.94711 20.0868 7.96031 20.0488C7.9757 20.0014 7.99054 19.9562 8.00483 19.9137C8.03067 19.8371 8.05486 19.7687 8.07629 19.7092C8.09388 19.659 8.10983 19.6155 8.12302 19.5786C8.14061 19.5295 8.15875 19.481 8.17689 19.4325C8.45229 18.7054 8.80355 18.0179 9.21253 17.3763C10.5736 15.2402 12.5729 13.6101 14.5089 12.7138C14.8574 12.5522 15.2038 12.4144 15.544 12.302C15.9997 12.1509 16.9782 11.8692 18.0468 11.5798C19.1182 11.2899 20.2803 10.9927 21.096 10.8136C21.6084 10.7011 21.8893 10.6559 22.174 10.5848C22.3318 10.5457 22.4901 10.4983 22.6902 10.4277C23.6296 10.0936 23.971 9.76785 24.5592 9.87645Z" fill="white"/>
<path d="M13.4277 16.7671C14.1715 16.7671 14.7745 16.1625 14.7745 15.4166C14.7745 14.6707 14.1715 14.066 13.4277 14.066C12.6839 14.066 12.0809 14.6707 12.0809 15.4166C12.0809 16.1625 12.6839 16.7671 13.4277 16.7671Z" fill="white"/>
<path d="M14.9669 15.389C15.2249 15.389 15.4341 15.1792 15.4341 14.9204C15.4341 14.6617 15.2249 14.4519 14.9669 14.4519C14.7088 14.4519 14.4996 14.6617 14.4996 14.9204C14.4996 15.1792 14.7088 15.389 14.9669 15.389Z" fill="white"/>
<path d="M20.2325 30.5573C24.0846 30.3643 27.1698 29.4561 27.1236 28.5287C27.0774 27.6012 23.9172 27.0059 20.0652 27.1989C16.2132 27.3918 13.1279 28.3001 13.1741 29.2275C13.2203 30.1549 16.3805 30.7503 20.2325 30.5573Z" fill="#644D9A"/>
<path d="M19.9691 28.8948C24.9633 28.8948 29.0118 25.7727 29.0118 21.9214C29.0118 18.0701 24.9633 14.948 19.9691 14.948C14.975 14.948 10.9265 18.0701 10.9265 21.9214C10.9265 25.7727 14.975 28.8948 19.9691 28.8948Z" fill="#9F92C6"/>
<path d="M22.8826 16.6569C23.9604 16.6569 24.8341 15.7807 24.8341 14.6999C24.8341 13.6191 23.9604 12.743 22.8826 12.743C21.8048 12.743 20.9312 13.6191 20.9312 14.6999C20.9312 15.7807 21.8048 16.6569 22.8826 16.6569Z" fill="#9F92C6"/>
<path d="M21.4039 26.6027C24.5272 25.8588 26.6413 23.4913 26.1258 21.3148C25.6104 19.1382 22.6605 17.9768 19.5372 18.7206C16.4139 19.4645 14.2998 21.832 14.8153 24.0085C15.3308 26.1851 18.2806 27.3465 21.4039 26.6027Z" fill="#644D9A"/>
<path d="M25.5622 18.5818C25.6707 17.7639 24.8073 16.9739 23.6336 16.8173C22.4599 16.6607 21.4205 17.1967 21.312 18.0146C21.2035 18.8324 22.0669 19.6224 23.2406 19.779C24.4143 19.9356 25.4537 19.3996 25.5622 18.5818Z" fill="#644D9A"/>
<path d="M12.7406 30.2729C13.5906 30.2729 14.2798 29.804 14.2798 29.2255C14.2798 28.6471 13.5906 28.1781 12.7406 28.1781C11.8905 28.1781 11.2014 28.6471 11.2014 29.2255C11.2014 29.804 11.8905 30.2729 12.7406 30.2729Z" fill="#644D9A"/>
<path d="M27.6376 29.5563C28.4876 29.5563 29.1767 29.0874 29.1767 28.5089C29.1767 27.9304 28.4876 27.4615 27.6376 27.4615C26.7875 27.4615 26.0984 27.9304 26.0984 28.5089C26.0984 29.0874 26.7875 29.5563 27.6376 29.5563Z" fill="#644D9A"/>
<path d="M14.9806 19.9578C14.9806 19.5352 14.6392 19.1927 14.2179 19.1927C13.7967 19.1927 13.4552 19.5352 13.4552 19.9578V21.4594C13.4552 21.882 13.7967 22.2246 14.2179 22.2246C14.6392 22.2246 14.9806 21.882 14.9806 21.4594V19.9578Z" fill="#30245B"/>
<path d="M19.4882 19.9578C19.4882 19.5352 19.1467 19.1927 18.7255 19.1927C18.3042 19.1927 17.9628 19.5352 17.9628 19.9578V21.4594C17.9628 21.882 18.3042 22.2246 18.7255 22.2246C19.1467 22.2246 19.4882 21.882 19.4882 21.4594V19.9578Z" fill="#30245B"/>
<path d="M15.5001 22.4743C15.5001 23.0311 15.9547 23.4809 16.5083 23.434C16.9843 23.3938 17.3587 22.9936 17.3587 22.5057V22.4743C17.3587 22.3365 17.2471 22.2246 17.1097 22.2246H15.7497C15.6123 22.2246 15.5007 22.3365 15.5007 22.4743H15.5001Z" fill="#30245B"/>
<path d="M20.1066 23.4373C20.9566 23.4373 21.6457 23.2646 21.6457 23.0515C21.6457 22.8384 20.9566 22.6656 20.1066 22.6656C19.2565 22.6656 18.5674 22.8384 18.5674 23.0515C18.5674 23.2646 19.2565 23.4373 20.1066 23.4373Z" fill="#F8CCE1"/>
<path d="M13.0704 23.5476C13.9205 23.5476 14.6096 23.3748 14.6096 23.1617C14.6096 22.9486 13.9205 22.7758 13.0704 22.7758C12.2204 22.7758 11.5312 22.9486 11.5312 23.1617C11.5312 23.3748 12.2204 23.5476 13.0704 23.5476Z" fill="#F8CCE1"/>
<path d="M14.0324 20.24C14.2297 20.24 14.3897 20.0796 14.3897 19.8817C14.3897 19.6838 14.2297 19.5234 14.0324 19.5234C13.835 19.5234 13.675 19.6838 13.675 19.8817C13.675 20.0796 13.835 20.24 14.0324 20.24Z" fill="#E6E1F1"/>
<path d="M14.4996 20.4605C14.5907 20.4605 14.6645 20.3865 14.6645 20.2952C14.6645 20.2038 14.5907 20.1298 14.4996 20.1298C14.4086 20.1298 14.3347 20.2038 14.3347 20.2952C14.3347 20.3865 14.4086 20.4605 14.4996 20.4605Z" fill="#E6E1F1"/>
<path d="M18.5399 20.24C18.7373 20.24 18.8972 20.0796 18.8972 19.8817C18.8972 19.6838 18.7373 19.5234 18.5399 19.5234C18.3426 19.5234 18.1826 19.6838 18.1826 19.8817C18.1826 20.0796 18.3426 20.24 18.5399 20.24Z" fill="#E6E1F1"/>
<path d="M19.0072 20.4605C19.0983 20.4605 19.1721 20.3865 19.1721 20.2952C19.1721 20.2038 19.0983 20.1298 19.0072 20.1298C18.9161 20.1298 18.8423 20.2038 18.8423 20.2952C18.8423 20.3865 18.9161 20.4605 19.0072 20.4605Z" fill="#E6E1F1"/>
<path d="M29.1646 9.56828C29.5032 9.61238 29.86 9.55505 30.187 9.3792C30.9429 8.97347 31.2821 8.04902 30.9676 7.2497C30.6015 6.31918 29.5345 5.90794 28.649 6.3302C28.3428 6.47628 28.1004 6.7023 27.9338 6.97131C27.8607 7.08928 27.7887 7.20835 27.7101 7.32301L26.3336 9.32683L28.7523 9.52032C28.8897 9.53135 29.0266 9.55009 29.164 9.56828H29.1646Z" fill="#E6E1F1"/>
<path d="M29.3845 9.74799C29.3042 9.74799 29.224 9.74303 29.1432 9.73255L29.0893 9.72539C28.9744 9.7105 28.8551 9.69452 28.7397 9.68514L26.0363 9.4685L27.5749 7.22875C27.6397 7.13448 27.7019 7.0336 27.7618 6.93658L27.7942 6.88366C27.9828 6.57826 28.2543 6.33516 28.5786 6.18026C29.0448 5.9581 29.5873 5.93936 30.0672 6.12954C30.5543 6.32193 30.9286 6.69789 31.1216 7.18851C31.469 8.07162 31.1007 9.07601 30.2651 9.52473C29.9908 9.67191 29.6901 9.74744 29.3845 9.74744V9.74799ZM26.6321 9.1846L28.7666 9.35549C28.8903 9.36542 29.014 9.3814 29.1327 9.39739L29.1861 9.40456C29.5049 9.4459 29.8243 9.38691 30.1096 9.23367C30.7862 8.87039 31.0963 8.02586 30.8148 7.31088C30.656 6.90681 30.3476 6.59646 29.9469 6.43825C29.5456 6.27948 29.1102 6.29437 28.721 6.48014C28.4539 6.60748 28.2307 6.80759 28.0751 7.05896L28.0427 7.11133C27.9806 7.21221 27.9162 7.3164 27.847 7.41728L26.6321 9.18516V9.1846Z" fill="#31235C"/>
<path d="M29.1217 7.61628C29.4253 7.61628 29.6714 7.36947 29.6714 7.06502C29.6714 6.76057 29.4253 6.51376 29.1217 6.51376C28.8181 6.51376 28.572 6.76057 28.572 7.06502C28.572 7.36947 28.8181 7.61628 29.1217 7.61628Z" fill="white"/>
<path d="M29.7501 7.05399C29.8554 7.05399 29.9408 6.96835 29.9408 6.8627C29.9408 6.75706 29.8554 6.67142 29.7501 6.67142C29.6447 6.67142 29.5593 6.75706 29.5593 6.8627C29.5593 6.96835 29.6447 7.05399 29.7501 7.05399Z" fill="white"/>
</svg>
